<?xml version="1.0" encoding="utf-8"?>
<!-- Generator: Adobe Illustrator 22.1.0, SVG Export Plug-In . SVG Version: 6.00 Build 0)  -->
<svg version="1.1" id="Layer_1" xmlns="http://www.w3.org/2000/svg" xmlns:xlink="http://www.w3.org/1999/xlink" x="0px" y="0px"
	 viewBox="0 0 262.2 33.9" style="enable-background:new 0 0 262.2 33.9;" xml:space="preserve">
<style type="text/css">
	.st0{fill:#3F4DB2;}
	.st1{fill:#3B44F5;}
	.st2{clip-path:url(#SVGID_2_);}
	.st3{clip-path:url(#SVGID_4_);}
	.st4{clip-path:url(#SVGID_6_);}
	.st5{clip-path:url(#SVGID_8_);}
	.st6{clip-path:url(#SVGID_10_);}
	.st7{fill:none;}
	.st8{clip-path:url(#SVGID_12_);}
	.st9{clip-path:url(#SVGID_14_);}
	.st10{clip-path:url(#SVGID_16_);}
</style>
<g>
	<g>
		<g>
			<path class="st0" d="M218.2,2.1l-4.5,12.8c-0.6,1.7-1.1,3.6-1.6,5.5h-0.2c-0.6-1.8-1.1-3.7-1.6-5.5l-4.7-12.8l-2.3,10.8l2.5,7.5
				l3.8,10.3h4.4l3.8-10.3l2.6-7.5h0.2c-0.4,3.1-1.1,8-1.1,11.1v9.2h7.5V2.1H218.2z"/>
		</g>
	</g>
	<g>
		<g>
			<path class="st0" d="M19.2,2.1l-2.3,6.5c-0.8,2.4-1.6,4.5-2.4,7l-4.3,7v10.8h8.3V22.6l9.4-20.4L19.2,2.1L19.2,2.1z"/>
		</g>
		<g>
			<path class="st1" d="M20.2,1.1l-2.3,6.5c-0.8,2.4-1.6,4.5-2.4,7l-4.3,7v10.8h8.3V21.6l9.4-20.4h-8.7V1.1z"/>
		</g>
		<g>
			<g>
				<defs>
					<path id="SVGID_1_" d="M10.9,7.6L8.6,1.1h-8.8l9.4,20.4l4.1-7C12.4,12.1,11.6,10,10.9,7.6z"/>
				</defs>
				<clipPath id="SVGID_2_">
					<use xlink:href="#SVGID_1_"  style="overflow:visible;"/>
				</clipPath>
				<g class="st2">
					<g>
						
							<rect x="-22" y="-4.1" transform="matrix(0.9006 -0.4346 0.4346 0.9006 1.566 -0.4698)" class="st1" width="43.5" height="0.9"/>
						
							<rect x="-22" y="-1.9" transform="matrix(0.9006 -0.4346 0.4346 0.9006 0.611 -0.2489)" class="st1" width="43.5" height="0.9"/>
						
							<rect x="-22" y="0.3" transform="matrix(0.9006 -0.4346 0.4346 0.9006 -0.344 -2.799228e-02)" class="st1" width="43.5" height="0.9"/>
						
							<rect x="-22" y="2.5" transform="matrix(0.9006 -0.4346 0.4346 0.9006 -1.299 0.1929)" class="st1" width="43.5" height="0.9"/>
						
							<rect x="-22" y="4.6" transform="matrix(0.9006 -0.4346 0.4346 0.9006 -2.2192 0.386)" class="st1" width="43.5" height="0.9"/>
						
							<rect x="-22" y="6.8" transform="matrix(0.9006 -0.4346 0.4346 0.9006 -3.1742 0.6069)" class="st1" width="43.5" height="0.9"/>
						
							<rect x="-22" y="9" transform="matrix(0.9006 -0.4346 0.4346 0.9006 -4.1292 0.8278)" class="st1" width="43.5" height="0.9"/>
						
							<rect x="-22" y="11.2" transform="matrix(0.9006 -0.4346 0.4346 0.9006 -5.0842 1.0488)" class="st1" width="43.5" height="0.9"/>
						
							<rect x="-22" y="13.4" transform="matrix(0.9006 -0.4346 0.4346 0.9006 -6.0392 1.2697)" class="st1" width="43.5" height="0.9"/>
						
							<rect x="-22" y="15.6" transform="matrix(0.9006 -0.4346 0.4346 0.9006 -6.9943 1.4906)" class="st1" width="43.5" height="0.9"/>
						
							<rect x="-22" y="17.8" transform="matrix(0.9006 -0.4346 0.4346 0.9006 -7.9493 1.7115)" class="st1" width="43.5" height="0.9"/>
						
							<rect x="-22" y="20" transform="matrix(0.9006 -0.4346 0.4346 0.9006 -8.9043 1.9325)" class="st1" width="43.5" height="0.9"/>
						
							<rect x="-22" y="22.1" transform="matrix(0.9006 -0.4346 0.4346 0.9006 -9.8245 2.1255)" class="st1" width="43.5" height="0.9"/>
						
							<rect x="-22" y="24.3" transform="matrix(0.9006 -0.4346 0.4346 0.9006 -10.7795 2.3465)" class="st1" width="43.5" height="0.9"/>
						
							<rect x="-22" y="26.5" transform="matrix(0.9006 -0.4346 0.4346 0.9006 -11.7345 2.5674)" class="st1" width="43.5" height="0.9"/>
						
							<rect x="-22" y="28.7" transform="matrix(0.9006 -0.4346 0.4346 0.9006 -12.6895 2.7884)" class="st1" width="43.5" height="0.9"/>
						
							<rect x="-22" y="30.9" transform="matrix(0.9006 -0.4346 0.4346 0.9006 -13.6445 3.0093)" class="st1" width="43.5" height="0.9"/>
						
							<rect x="-22" y="33.1" transform="matrix(0.9006 -0.4346 0.4346 0.9006 -14.5995 3.2302)" class="st1" width="43.5" height="0.9"/>
						
							<rect x="-22" y="35.3" transform="matrix(0.9006 -0.4346 0.4346 0.9006 -15.5545 3.4511)" class="st1" width="43.5" height="0.9"/>
						
							<rect x="-22" y="37.5" transform="matrix(0.9006 -0.4346 0.4346 0.9006 -16.5095 3.672)" class="st1" width="43.5" height="0.9"/>
						
							<rect x="-22" y="39.6" transform="matrix(0.9006 -0.4346 0.4346 0.9006 -17.4297 3.8651)" class="st1" width="43.5" height="0.9"/>
						
							<rect x="-22" y="41.8" transform="matrix(0.9006 -0.4346 0.4346 0.9006 -18.3847 4.086)" class="st1" width="43.5" height="0.9"/>
					</g>
				</g>
			</g>
		</g>
	</g>
	<g>
		<g>
			<path class="st0" d="M45,1.5v7.1c3.7,0,6,3.3,6,8.9c0,5.7-2.3,9.2-6,9.2v7.1c8.6,0,14.5-6,14.5-16.3C59.5,7.3,53.6,1.5,45,1.5z"
				/>
		</g>
		<g>
			<path class="st1" d="M46,0.5v7.1c3.7,0,6,3.3,6,8.9c0,5.7-2.3,9.2-6,9.2v7.1c8.6,0,14.5-6,14.5-16.3C60.5,6.3,54.6,0.5,46,0.5z"
				/>
		</g>
		<g>
			<g>
				<defs>
					<path id="SVGID_3_" d="M44,25.8c-3.7,0-6-3.6-6-9.2c0-5.7,2.3-8.9,6-8.9l0,0V0.5l0,0c-8.6,0-14.5,5.8-14.5,16
						c0,10.3,5.9,16.3,14.5,16.3l0,0V25.8L44,25.8z"/>
				</defs>
				<clipPath id="SVGID_4_">
					<use xlink:href="#SVGID_3_"  style="overflow:visible;"/>
				</clipPath>
				<g class="st3">
					<g>
						
							<rect x="15" y="-5.7" transform="matrix(0.9006 -0.4346 0.4346 0.9006 5.9391 15.4491)" class="st1" width="43.5" height="0.9"/>
						
							<rect x="15" y="-3.5" transform="matrix(0.9006 -0.4346 0.4346 0.9006 4.9841 15.67)" class="st1" width="43.5" height="0.9"/>
						
							<rect x="15" y="-1.3" transform="matrix(0.9006 -0.4346 0.4346 0.9006 4.0291 15.8909)" class="st1" width="43.5" height="0.9"/>
						
							<rect x="15" y="0.9" transform="matrix(0.9006 -0.4346 0.4346 0.9006 3.0741 16.1118)" class="st1" width="43.5" height="0.9"/>
						<rect x="15" y="3" transform="matrix(0.9006 -0.4346 0.4346 0.9006 2.1539 16.305)" class="st1" width="43.5" height="0.9"/>
						
							<rect x="15" y="5.2" transform="matrix(0.9006 -0.4346 0.4346 0.9006 1.1989 16.5259)" class="st1" width="43.5" height="0.9"/>
						
							<rect x="15" y="7.4" transform="matrix(0.9006 -0.4346 0.4346 0.9006 0.2439 16.7468)" class="st1" width="43.5" height="0.9"/>
						
							<rect x="15" y="9.6" transform="matrix(0.9006 -0.4346 0.4346 0.9006 -0.7111 16.9677)" class="st1" width="43.5" height="0.9"/>
						
							<rect x="15" y="11.8" transform="matrix(0.9006 -0.4346 0.4346 0.9006 -1.6661 17.1887)" class="st1" width="43.5" height="0.9"/>
						
							<rect x="15" y="14" transform="matrix(0.9006 -0.4346 0.4346 0.9006 -2.6211 17.4096)" class="st1" width="43.5" height="0.9"/>
						
							<rect x="15" y="16.2" transform="matrix(0.9006 -0.4346 0.4346 0.9006 -3.5761 17.6305)" class="st1" width="43.5" height="0.9"/>
						
							<rect x="15" y="18.4" transform="matrix(0.9006 -0.4346 0.4346 0.9006 -4.5311 17.8514)" class="st1" width="43.5" height="0.9"/>
						
							<rect x="15" y="20.5" transform="matrix(0.9006 -0.4346 0.4346 0.9006 -5.4513 18.0445)" class="st1" width="43.5" height="0.9"/>
						
							<rect x="15" y="22.7" transform="matrix(0.9006 -0.4346 0.4346 0.9006 -6.4063 18.2654)" class="st1" width="43.5" height="0.9"/>
						
							<rect x="15" y="24.9" transform="matrix(0.9006 -0.4346 0.4346 0.9006 -7.3613 18.4863)" class="st1" width="43.5" height="0.9"/>
						
							<rect x="15" y="27.1" transform="matrix(0.9006 -0.4346 0.4346 0.9006 -8.3164 18.7073)" class="st1" width="43.5" height="0.9"/>
						
							<rect x="15" y="29.3" transform="matrix(0.9006 -0.4346 0.4346 0.9006 -9.2714 18.9282)" class="st1" width="43.5" height="0.9"/>
						
							<rect x="15" y="31.5" transform="matrix(0.9006 -0.4346 0.4346 0.9006 -10.2264 19.1491)" class="st1" width="43.5" height="0.9"/>
						
							<rect x="15" y="33.7" transform="matrix(0.9006 -0.4346 0.4346 0.9006 -11.1814 19.37)" class="st1" width="43.5" height="0.9"/>
						
							<rect x="15" y="35.9" transform="matrix(0.9006 -0.4346 0.4346 0.9006 -12.1364 19.591)" class="st1" width="43.5" height="0.9"/>
						
							<rect x="15" y="38" transform="matrix(0.9006 -0.4346 0.4346 0.9006 -13.0566 19.784)" class="st1" width="43.5" height="0.9"/>
						
							<rect x="15" y="40.2" transform="matrix(0.9006 -0.4346 0.4346 0.9006 -14.0115 20.005)" class="st1" width="43.5" height="0.9"/>
					</g>
				</g>
			</g>
		</g>
	</g>
	<g>
		<g>
			<path class="st0" d="M110.7,1v7.1c3.7,0,6,3.3,6,8.9c0,5.7-2.3,9.2-6,9.2v7.1c8.6,0,14.5-6,14.5-16.3C125.2,6.8,119.3,1,110.7,1z
				"/>
		</g>
		<g>
			<path class="st1" d="M111.7,0v7.1c3.7,0,6,3.3,6,8.9c0,5.7-2.3,9.2-6,9.2v7.1c8.6,0,14.5-6,14.5-16.3C126.2,5.8,120.3,0,111.7,0z
				"/>
		</g>
		<g>
			<g>
				<defs>
					<path id="SVGID_5_" d="M109.7,25.3c-3.7,0-6-3.6-6-9.2c0-5.7,2.3-8.9,6-8.9l0,0V0l0,0c-8.6,0-14.5,5.8-14.5,16
						c0,10.3,5.9,16.3,14.5,16.3l0,0V25.3L109.7,25.3z"/>
				</defs>
				<clipPath id="SVGID_6_">
					<use xlink:href="#SVGID_5_"  style="overflow:visible;"/>
				</clipPath>
				<g class="st4">
					<g>
						
							<rect x="80.7" y="-6.2" transform="matrix(0.9006 -0.4346 0.4346 0.9006 12.6807 43.9547)" class="st1" width="43.5" height="0.9"/>
						
							<rect x="80.7" y="-4" transform="matrix(0.9006 -0.4346 0.4346 0.9006 11.7257 44.1756)" class="st1" width="43.5" height="0.9"/>
						
							<rect x="80.7" y="-1.8" transform="matrix(0.9006 -0.4346 0.4346 0.9006 10.7707 44.3966)" class="st1" width="43.5" height="0.9"/>
						
							<rect x="80.7" y="0.4" transform="matrix(0.9006 -0.4346 0.4346 0.9006 9.8157 44.6175)" class="st1" width="43.5" height="0.9"/>
						
							<rect x="80.7" y="2.5" transform="matrix(0.9006 -0.4346 0.4346 0.9006 8.8955 44.8106)" class="st1" width="43.5" height="0.9"/>
						
							<rect x="80.7" y="4.7" transform="matrix(0.9006 -0.4346 0.4346 0.9006 7.9405 45.0315)" class="st1" width="43.5" height="0.9"/>
						
							<rect x="80.7" y="6.9" transform="matrix(0.9006 -0.4346 0.4346 0.9006 6.9855 45.2524)" class="st1" width="43.5" height="0.9"/>
						
							<rect x="80.7" y="9.1" transform="matrix(0.9006 -0.4346 0.4346 0.9006 6.0305 45.4734)" class="st1" width="43.5" height="0.9"/>
						
							<rect x="80.7" y="11.3" transform="matrix(0.9006 -0.4346 0.4346 0.9006 5.0755 45.6943)" class="st1" width="43.5" height="0.9"/>
						
							<rect x="80.7" y="13.5" transform="matrix(0.9006 -0.4346 0.4346 0.9006 4.1205 45.9152)" class="st1" width="43.5" height="0.9"/>
						
							<rect x="80.7" y="15.7" transform="matrix(0.9006 -0.4346 0.4346 0.9006 3.1655 46.1361)" class="st1" width="43.5" height="0.9"/>
						
							<rect x="80.7" y="17.9" transform="matrix(0.9006 -0.4346 0.4346 0.9006 2.2105 46.3571)" class="st1" width="43.5" height="0.9"/>
						
							<rect x="80.7" y="20" transform="matrix(0.9006 -0.4346 0.4346 0.9006 1.2903 46.5501)" class="st1" width="43.5" height="0.9"/>
						
							<rect x="80.7" y="22.2" transform="matrix(0.9006 -0.4346 0.4346 0.9006 0.3353 46.7711)" class="st1" width="43.5" height="0.9"/>
						
							<rect x="80.7" y="24.4" transform="matrix(0.9006 -0.4346 0.4346 0.9006 -0.6197 46.992)" class="st1" width="43.5" height="0.9"/>
						
							<rect x="80.7" y="26.6" transform="matrix(0.9006 -0.4346 0.4346 0.9006 -1.5747 47.2129)" class="st1" width="43.5" height="0.9"/>
						
							<rect x="80.7" y="28.8" transform="matrix(0.9006 -0.4346 0.4346 0.9006 -2.5297 47.4338)" class="st1" width="43.5" height="0.9"/>
						
							<rect x="80.7" y="31" transform="matrix(0.9006 -0.4346 0.4346 0.9006 -3.4847 47.6548)" class="st1" width="43.5" height="0.9"/>
						
							<rect x="80.7" y="33.2" transform="matrix(0.9006 -0.4346 0.4346 0.9006 -4.4397 47.8757)" class="st1" width="43.5" height="0.9"/>
						
							<rect x="80.7" y="35.4" transform="matrix(0.9006 -0.4346 0.4346 0.9006 -5.3947 48.0966)" class="st1" width="43.5" height="0.9"/>
						
							<rect x="80.7" y="37.5" transform="matrix(0.9006 -0.4346 0.4346 0.9006 -6.3149 48.2897)" class="st1" width="43.5" height="0.9"/>
						
							<rect x="80.7" y="39.7" transform="matrix(0.9006 -0.4346 0.4346 0.9006 -7.2699 48.5106)" class="st1" width="43.5" height="0.9"/>
					</g>
				</g>
			</g>
		</g>
	</g>
	<g>
		<g>
			<polygon class="st0" points="82.1,14.8 91.4,2.1 82.4,2.1 74.5,13.7 74.3,25.5 77.3,21.3 84.2,33.3 93.2,33.3 			"/>
		</g>
		<g>
			<polygon class="st1" points="83.1,13.8 92.4,1.1 83.4,1.1 75.5,12.7 75.3,24.5 78.3,20.3 85.2,32.3 94.2,32.3 			"/>
		</g>
		<g>
			<g>
				<defs>
					<polygon id="SVGID_7_" points="73.3,1.1 65,1.1 65,32.3 73.3,32.3 73.3,24.5 73.3,12.7 					"/>
				</defs>
				<clipPath id="SVGID_8_">
					<use xlink:href="#SVGID_7_"  style="overflow:visible;"/>
				</clipPath>
				<g class="st5">
					<g>
						
							<rect x="39.2" y="-1.3" transform="matrix(0.9006 -0.4346 0.4346 0.9006 6.4302 26.4096)" class="st1" width="43.5" height="0.9"/>
						
							<rect x="39.2" y="0.9" transform="matrix(0.9006 -0.4346 0.4346 0.9006 5.4752 26.6305)" class="st1" width="43.5" height="0.9"/>
						
							<rect x="39.2" y="3.1" transform="matrix(0.9006 -0.4346 0.4346 0.9006 4.5202 26.8514)" class="st1" width="43.5" height="0.9"/>
						
							<rect x="39.2" y="5.2" transform="matrix(0.9006 -0.4346 0.4346 0.9006 3.6 27.0445)" class="st1" width="43.5" height="0.9"/>
						
							<rect x="39.2" y="7.4" transform="matrix(0.9006 -0.4346 0.4346 0.9006 2.645 27.2654)" class="st1" width="43.5" height="0.9"/>
						
							<rect x="39.2" y="9.6" transform="matrix(0.9006 -0.4346 0.4346 0.9006 1.69 27.4864)" class="st1" width="43.5" height="0.9"/>
						
							<rect x="39.2" y="11.8" transform="matrix(0.9006 -0.4346 0.4346 0.9006 0.735 27.7073)" class="st1" width="43.5" height="0.9"/>
						
							<rect x="39.2" y="14" transform="matrix(0.9006 -0.4346 0.4346 0.9006 -0.22 27.9282)" class="st1" width="43.5" height="0.9"/>
						
							<rect x="39.2" y="16.2" transform="matrix(0.9006 -0.4346 0.4346 0.9006 -1.175 28.1491)" class="st1" width="43.5" height="0.9"/>
						
							<rect x="39.2" y="18.4" transform="matrix(0.9006 -0.4346 0.4346 0.9006 -2.13 28.37)" class="st1" width="43.5" height="0.9"/>
						
							<rect x="39.2" y="20.5" transform="matrix(0.9006 -0.4346 0.4346 0.9006 -3.0502 28.5631)" class="st1" width="43.5" height="0.9"/>
						
							<rect x="39.2" y="22.7" transform="matrix(0.9006 -0.4346 0.4346 0.9006 -4.0052 28.784)" class="st1" width="43.5" height="0.9"/>
						
							<rect x="39.2" y="24.9" transform="matrix(0.9006 -0.4346 0.4346 0.9006 -4.9602 29.005)" class="st1" width="43.5" height="0.9"/>
						
							<rect x="39.2" y="27.1" transform="matrix(0.9006 -0.4346 0.4346 0.9006 -5.9152 29.2259)" class="st1" width="43.5" height="0.9"/>
						
							<rect x="39.2" y="29.3" transform="matrix(0.9006 -0.4346 0.4346 0.9006 -6.8702 29.4469)" class="st1" width="43.5" height="0.9"/>
						
							<rect x="39.2" y="31.5" transform="matrix(0.9006 -0.4346 0.4346 0.9006 -7.8252 29.6678)" class="st1" width="43.5" height="0.9"/>
						
							<rect x="39.2" y="33.7" transform="matrix(0.9006 -0.4346 0.4346 0.9006 -8.7802 29.8887)" class="st1" width="43.5" height="0.9"/>
						
							<rect x="39.2" y="35.9" transform="matrix(0.9006 -0.4346 0.4346 0.9006 -9.7352 30.1096)" class="st1" width="43.5" height="0.9"/>
						
							<rect x="39.2" y="38" transform="matrix(0.9006 -0.4346 0.4346 0.9006 -10.6554 30.3027)" class="st1" width="43.5" height="0.9"/>
						
							<rect x="39.2" y="40.2" transform="matrix(0.9006 -0.4346 0.4346 0.9006 -11.6104 30.5236)" class="st1" width="43.5" height="0.9"/>
						
							<rect x="39.2" y="42.4" transform="matrix(0.9006 -0.4346 0.4346 0.9006 -12.5654 30.7446)" class="st1" width="43.5" height="0.9"/>
						
							<rect x="39.2" y="44.6" transform="matrix(0.9006 -0.4346 0.4346 0.9006 -13.5205 30.9655)" class="st1" width="43.5" height="0.9"/>
					</g>
				</g>
			</g>
		</g>
	</g>
	<g>
		<g>
			<polygon class="st0" points="148.5,2.1 148.5,13.7 139.2,13.7 139.2,20.9 148.5,20.9 148.5,33.3 156.8,33.3 156.8,2.1 			"/>
		</g>
		<g>
			<polygon class="st1" points="149.5,1.1 149.5,12.7 140.2,12.7 140.2,19.9 149.5,19.9 149.5,32.3 157.8,32.3 157.8,1.1 			"/>
		</g>
		<g>
			<g>
				<defs>
					<polygon id="SVGID_9_" points="138.2,1.1 130,1.1 130,32.3 138.2,32.3 138.2,19.9 138.2,12.7 					"/>
				</defs>
				<clipPath id="SVGID_10_">
					<use xlink:href="#SVGID_9_"  style="overflow:visible;"/>
				</clipPath>
				<g class="st6">
					<g>
						
							<rect x="109.7" y="-4.1" transform="matrix(0.9006 -0.4346 0.4346 0.9006 14.648 56.7695)" class="st1" width="43.5" height="0.9"/>
						
							<rect x="109.7" y="-1.9" transform="matrix(0.9006 -0.4346 0.4346 0.9006 13.693 56.9904)" class="st1" width="43.5" height="0.9"/>
						
							<rect x="109.7" y="0.3" transform="matrix(0.9006 -0.4346 0.4346 0.9006 12.738 57.2113)" class="st1" width="43.5" height="0.9"/>
						
							<rect x="109.7" y="2.5" transform="matrix(0.9006 -0.4346 0.4346 0.9006 11.783 57.4323)" class="st1" width="43.5" height="0.9"/>
						
							<rect x="109.7" y="4.6" transform="matrix(0.9006 -0.4346 0.4346 0.9006 10.8628 57.6254)" class="st1" width="43.5" height="0.9"/>
						
							<rect x="109.7" y="6.8" transform="matrix(0.9006 -0.4346 0.4346 0.9006 9.9078 57.8463)" class="st1" width="43.5" height="0.9"/>
						
							<rect x="109.7" y="9" transform="matrix(0.9006 -0.4346 0.4346 0.9006 8.9527 58.0672)" class="st1" width="43.5" height="0.9"/>
						
							<rect x="109.7" y="11.2" transform="matrix(0.9006 -0.4346 0.4346 0.9006 7.9978 58.2882)" class="st1" width="43.5" height="0.9"/>
						
							<rect x="109.7" y="13.4" transform="matrix(0.9006 -0.4346 0.4346 0.9006 7.0427 58.5091)" class="st1" width="43.5" height="0.9"/>
						
							<rect x="109.7" y="15.6" transform="matrix(0.9006 -0.4346 0.4346 0.9006 6.0877 58.73)" class="st1" width="43.5" height="0.9"/>
						
							<rect x="109.7" y="17.8" transform="matrix(0.9006 -0.4346 0.4346 0.9006 5.1327 58.9509)" class="st1" width="43.5" height="0.9"/>
						
							<rect x="109.7" y="20" transform="matrix(0.9006 -0.4346 0.4346 0.9006 4.1777 59.1718)" class="st1" width="43.5" height="0.9"/>
						
							<rect x="109.7" y="22.1" transform="matrix(0.9006 -0.4346 0.4346 0.9006 3.2576 59.3649)" class="st1" width="43.5" height="0.9"/>
						
							<rect x="109.7" y="24.3" transform="matrix(0.9006 -0.4346 0.4346 0.9006 2.3025 59.5858)" class="st1" width="43.5" height="0.9"/>
						
							<rect x="109.7" y="26.5" transform="matrix(0.9006 -0.4346 0.4346 0.9006 1.3475 59.8068)" class="st1" width="43.5" height="0.9"/>
						
							<rect x="109.7" y="28.7" transform="matrix(0.9006 -0.4346 0.4346 0.9006 0.3925 60.0277)" class="st1" width="43.5" height="0.9"/>
						
							<rect x="109.7" y="30.9" transform="matrix(0.9006 -0.4346 0.4346 0.9006 -0.5625 60.2486)" class="st1" width="43.5" height="0.9"/>
						
							<rect x="109.7" y="33.1" transform="matrix(0.9006 -0.4346 0.4346 0.9006 -1.5175 60.4695)" class="st1" width="43.5" height="0.9"/>
						
							<rect x="109.7" y="35.3" transform="matrix(0.9006 -0.4346 0.4346 0.9006 -2.4725 60.6905)" class="st1" width="43.5" height="0.9"/>
						
							<rect x="109.7" y="37.5" transform="matrix(0.9006 -0.4346 0.4346 0.9006 -3.4275 60.9114)" class="st1" width="43.5" height="0.9"/>
						
							<rect x="109.7" y="39.6" transform="matrix(0.9006 -0.4346 0.4346 0.9006 -4.3477 61.1045)" class="st1" width="43.5" height="0.9"/>
						
							<rect x="109.7" y="41.8" transform="matrix(0.9006 -0.4346 0.4346 0.9006 -5.3027 61.3254)" class="st1" width="43.5" height="0.9"/>
					</g>
				</g>
			</g>
		</g>
	</g>
	<g>
		<g>
			<path class="st0" d="M181.2,2.1h-3.9l-1.2,6.1c0.8,3.1,1.5,6.9,2.3,9.9l0.5,2.2h-5.8l-1.5,6.4h8.7l1.5,6.6h8.7L181.2,2.1z"/>
		</g>
		<g>
			<path class="st7" d="M174.2,19.3h5.8l-0.5-2.2c-0.8-3-1.5-6.8-2.3-9.9H177c-0.7,3.2-1.4,6.9-2.2,9.9L174.2,19.3z"/>
		</g>
		<g>
			<path class="st1" d="M182.2,1.1h-3.9l-1.2,6.1c0.8,3.1,1.5,6.9,2.3,9.9l0.5,2.2h-5.8l-1.5,6.4h8.7l1.5,6.6h8.7L182.2,1.1z"/>
		</g>
		<g>
			<g>
				<defs>
					<polygon id="SVGID_11_" points="175,7.3 176.4,1.1 170.3,1.1 160.8,32.3 169.2,32.3 170.7,25.7 172.2,19.3 					"/>
				</defs>
				<clipPath id="SVGID_12_">
					<use xlink:href="#SVGID_11_"  style="overflow:visible;"/>
				</clipPath>
				<g class="st8">
					<g>
						
							<rect x="147.5" y="-5.7" transform="matrix(0.9006 -0.4346 0.4346 0.9006 19.115 73.0292)" class="st1" width="43.5" height="0.9"/>
						
							<rect x="147.5" y="-3.5" transform="matrix(0.9006 -0.4346 0.4346 0.9006 18.16 73.2501)" class="st1" width="43.5" height="0.9"/>
						
							<rect x="147.5" y="-1.3" transform="matrix(0.9006 -0.4346 0.4346 0.9006 17.205 73.471)" class="st1" width="43.5" height="0.9"/>
						
							<rect x="147.5" y="0.9" transform="matrix(0.9006 -0.4346 0.4346 0.9006 16.25 73.6919)" class="st1" width="43.5" height="0.9"/>
						
							<rect x="147.5" y="3" transform="matrix(0.9006 -0.4346 0.4346 0.9006 15.3298 73.885)" class="st1" width="43.5" height="0.9"/>
						
							<rect x="147.5" y="5.2" transform="matrix(0.9006 -0.4346 0.4346 0.9006 14.3748 74.106)" class="st1" width="43.5" height="0.9"/>
						
							<rect x="147.5" y="7.4" transform="matrix(0.9006 -0.4346 0.4346 0.9006 13.4198 74.3269)" class="st1" width="43.5" height="0.9"/>
						
							<rect x="147.5" y="9.6" transform="matrix(0.9006 -0.4346 0.4346 0.9006 12.4648 74.5478)" class="st1" width="43.5" height="0.9"/>
						
							<rect x="147.5" y="11.8" transform="matrix(0.9006 -0.4346 0.4346 0.9006 11.5098 74.7687)" class="st1" width="43.5" height="0.9"/>
						
							<rect x="147.5" y="14" transform="matrix(0.9006 -0.4346 0.4346 0.9006 10.5548 74.9897)" class="st1" width="43.5" height="0.9"/>
						
							<rect x="147.5" y="16.2" transform="matrix(0.9006 -0.4346 0.4346 0.9006 9.5998 75.2106)" class="st1" width="43.5" height="0.9"/>
						
							<rect x="147.5" y="18.4" transform="matrix(0.9006 -0.4346 0.4346 0.9006 8.6448 75.4315)" class="st1" width="43.5" height="0.9"/>
						
							<rect x="147.5" y="20.5" transform="matrix(0.9006 -0.4346 0.4346 0.9006 7.7246 75.6246)" class="st1" width="43.5" height="0.9"/>
						
							<rect x="147.5" y="22.7" transform="matrix(0.9006 -0.4346 0.4346 0.9006 6.7696 75.8455)" class="st1" width="43.5" height="0.9"/>
						
							<rect x="147.5" y="24.9" transform="matrix(0.9006 -0.4346 0.4346 0.9006 5.8146 76.0664)" class="st1" width="43.5" height="0.9"/>
						
							<rect x="147.5" y="27.1" transform="matrix(0.9006 -0.4346 0.4346 0.9006 4.8595 76.2873)" class="st1" width="43.5" height="0.9"/>
						
							<rect x="147.5" y="29.3" transform="matrix(0.9006 -0.4346 0.4346 0.9006 3.9046 76.5083)" class="st1" width="43.5" height="0.9"/>
						
							<rect x="147.5" y="31.5" transform="matrix(0.9006 -0.4346 0.4346 0.9006 2.9495 76.7292)" class="st1" width="43.5" height="0.9"/>
						
							<rect x="147.5" y="33.7" transform="matrix(0.9006 -0.4346 0.4346 0.9006 1.9946 76.9501)" class="st1" width="43.5" height="0.9"/>
						
							<rect x="147.5" y="35.9" transform="matrix(0.9006 -0.4346 0.4346 0.9006 1.0395 77.1711)" class="st1" width="43.5" height="0.9"/>
						
							<rect x="147.5" y="38" transform="matrix(0.9006 -0.4346 0.4346 0.9006 0.1194 77.3642)" class="st1" width="43.5" height="0.9"/>
						
							<rect x="147.5" y="40.2" transform="matrix(0.9006 -0.4346 0.4346 0.9006 -0.8357 77.5851)" class="st1" width="43.5" height="0.9"/>
					</g>
				</g>
			</g>
		</g>
	</g>
	<g>
		<path class="st0" d="M251.7,2.1h-3.9l-1.2,6.1c0.8,3.1,1.5,6.9,2.3,9.9l0.5,2.2h-5.8l-1.5,6.4h8.7l1.5,6.6h8.7L251.7,2.1z"/>
	</g>
	<g>
		<path class="st7" d="M244.7,19.3h5.8l-0.5-2.2c-0.8-3-1.5-6.8-2.3-9.9h-0.2c-0.7,3.2-1.4,6.9-2.2,9.9L244.7,19.3z"/>
	</g>
	<g>
		<path class="st1" d="M252.7,1.1h-3.9l-1.2,6.1c0.8,3.1,1.5,6.9,2.3,9.9l0.5,2.2h-5.8l-1.5,6.4h8.7l1.5,6.6h8.7L252.7,1.1z"/>
	</g>
	<g>
		<g>
			<defs>
				<polygon id="SVGID_13_" points="245.4,7.3 246.9,1.1 240.7,1.1 231.2,32.3 239.7,32.3 241.2,25.7 242.7,19.3 				"/>
			</defs>
			<clipPath id="SVGID_14_">
				<use xlink:href="#SVGID_13_"  style="overflow:visible;"/>
			</clipPath>
			<g class="st9">
				<g>
					
						<rect x="217.9" y="-5.7" transform="matrix(0.9006 -0.4346 0.4346 0.9006 26.0965 103.6319)" class="st1" width="43.5" height="0.9"/>
					
						<rect x="217.9" y="-3.5" transform="matrix(0.9006 -0.4346 0.4346 0.9006 25.1415 103.8529)" class="st1" width="43.5" height="0.9"/>
					
						<rect x="217.9" y="-1.3" transform="matrix(0.9006 -0.4346 0.4346 0.9006 24.1864 104.0738)" class="st1" width="43.5" height="0.9"/>
					
						<rect x="217.9" y="0.9" transform="matrix(0.9006 -0.4346 0.4346 0.9006 23.2315 104.2947)" class="st1" width="43.5" height="0.9"/>
					
						<rect x="217.9" y="3" transform="matrix(0.9006 -0.4346 0.4346 0.9006 22.3113 104.4878)" class="st1" width="43.5" height="0.9"/>
					
						<rect x="217.9" y="5.2" transform="matrix(0.9006 -0.4346 0.4346 0.9006 21.3563 104.7087)" class="st1" width="43.5" height="0.9"/>
					
						<rect x="217.9" y="7.4" transform="matrix(0.9006 -0.4346 0.4346 0.9006 20.4013 104.9296)" class="st1" width="43.5" height="0.9"/>
					
						<rect x="217.9" y="9.6" transform="matrix(0.9006 -0.4346 0.4346 0.9006 19.4462 105.1505)" class="st1" width="43.5" height="0.9"/>
					
						<rect x="217.9" y="11.8" transform="matrix(0.9006 -0.4346 0.4346 0.9006 18.4913 105.3715)" class="st1" width="43.5" height="0.9"/>
					
						<rect x="217.9" y="14" transform="matrix(0.9006 -0.4346 0.4346 0.9006 17.5362 105.5924)" class="st1" width="43.5" height="0.9"/>
					
						<rect x="217.9" y="16.2" transform="matrix(0.9006 -0.4346 0.4346 0.9006 16.5812 105.8133)" class="st1" width="43.5" height="0.9"/>
					
						<rect x="217.9" y="18.4" transform="matrix(0.9006 -0.4346 0.4346 0.9006 15.6262 106.0342)" class="st1" width="43.5" height="0.9"/>
					
						<rect x="217.9" y="20.5" transform="matrix(0.9006 -0.4346 0.4346 0.9006 14.706 106.2273)" class="st1" width="43.5" height="0.9"/>
					
						<rect x="217.9" y="22.7" transform="matrix(0.9006 -0.4346 0.4346 0.9006 13.751 106.4483)" class="st1" width="43.5" height="0.9"/>
					
						<rect x="217.9" y="24.9" transform="matrix(0.9006 -0.4346 0.4346 0.9006 12.796 106.6692)" class="st1" width="43.5" height="0.9"/>
					
						<rect x="217.9" y="27.1" transform="matrix(0.9006 -0.4346 0.4346 0.9006 11.841 106.8901)" class="st1" width="43.5" height="0.9"/>
					
						<rect x="217.9" y="29.3" transform="matrix(0.9006 -0.4346 0.4346 0.9006 10.886 107.111)" class="st1" width="43.5" height="0.9"/>
					
						<rect x="217.9" y="31.5" transform="matrix(0.9006 -0.4346 0.4346 0.9006 9.931 107.332)" class="st1" width="43.5" height="0.9"/>
					
						<rect x="217.9" y="33.7" transform="matrix(0.9006 -0.4346 0.4346 0.9006 8.976 107.5529)" class="st1" width="43.5" height="0.9"/>
					
						<rect x="217.9" y="35.9" transform="matrix(0.9006 -0.4346 0.4346 0.9006 8.021 107.7738)" class="st1" width="43.5" height="0.9"/>
					
						<rect x="217.9" y="38" transform="matrix(0.9006 -0.4346 0.4346 0.9006 7.1008 107.9669)" class="st1" width="43.5" height="0.9"/>
					
						<rect x="217.9" y="40.2" transform="matrix(0.9006 -0.4346 0.4346 0.9006 6.1458 108.1878)" class="st1" width="43.5" height="0.9"/>
				</g>
			</g>
		</g>
	</g>
	<g>
		<g>
			<path class="st1" d="M219.2,1.1l-4.5,12.8c-0.6,1.7-1.1,3.6-1.6,5.5h-0.2c-0.6-1.8-1.1-3.7-1.6-5.5l-4.7-12.8l-2.3,10.8l2.5,7.5
				l3.8,10.3h4.4l3.8-10.3l2.6-7.5h0.2c-0.4,3.1-1.1,8-1.1,11.1v9.2h7.5V1.1H219.2z"/>
		</g>
	</g>
	<g>
		<g>
			<defs>
				<path id="SVGID_15_" d="M195.7,1.1v31.2h7.4v-9.2c0-1-0.1-2.1-0.2-3.3L202,12l2.5-10.8h-8.8V1.1z"/>
			</defs>
			<clipPath id="SVGID_16_">
				<use xlink:href="#SVGID_15_"  style="overflow:visible;"/>
			</clipPath>
			<g class="st10">
				<g>
					
						<rect x="175.2" y="-6.7" transform="matrix(0.9006 -0.4346 0.4346 0.9006 22.2987 84.9699)" class="st1" width="43.5" height="0.9"/>
					
						<rect x="175.2" y="-4.5" transform="matrix(0.9006 -0.4346 0.4346 0.9006 21.3436 85.1908)" class="st1" width="43.5" height="0.9"/>
					
						<rect x="175.2" y="-2.3" transform="matrix(0.9006 -0.4346 0.4346 0.9006 20.3886 85.4118)" class="st1" width="43.5" height="0.9"/>
					
						<rect x="175.2" y="-0.1" transform="matrix(0.9006 -0.4346 0.4346 0.9006 19.4336 85.6327)" class="st1" width="43.5" height="0.9"/>
					
						<rect x="175.2" y="2" transform="matrix(0.9006 -0.4346 0.4346 0.9006 18.5134 85.8258)" class="st1" width="43.5" height="0.9"/>
					
						<rect x="175.2" y="4.2" transform="matrix(0.9006 -0.4346 0.4346 0.9006 17.5584 86.0467)" class="st1" width="43.5" height="0.9"/>
					
						<rect x="175.2" y="6.4" transform="matrix(0.9006 -0.4346 0.4346 0.9006 16.6034 86.2676)" class="st1" width="43.5" height="0.9"/>
					
						<rect x="175.2" y="8.6" transform="matrix(0.9006 -0.4346 0.4346 0.9006 15.6484 86.4885)" class="st1" width="43.5" height="0.9"/>
					
						<rect x="175.2" y="10.8" transform="matrix(0.9006 -0.4346 0.4346 0.9006 14.6934 86.7095)" class="st1" width="43.5" height="0.9"/>
					
						<rect x="175.2" y="13" transform="matrix(0.9006 -0.4346 0.4346 0.9006 13.7384 86.9304)" class="st1" width="43.5" height="0.9"/>
					
						<rect x="175.2" y="15.2" transform="matrix(0.9006 -0.4346 0.4346 0.9006 12.7834 87.1513)" class="st1" width="43.5" height="0.9"/>
					
						<rect x="175.2" y="17.4" transform="matrix(0.9006 -0.4346 0.4346 0.9006 11.8284 87.3722)" class="st1" width="43.5" height="0.9"/>
					
						<rect x="175.2" y="19.5" transform="matrix(0.9006 -0.4346 0.4346 0.9006 10.9082 87.5653)" class="st1" width="43.5" height="0.9"/>
					
						<rect x="175.2" y="21.7" transform="matrix(0.9006 -0.4346 0.4346 0.9006 9.9532 87.7863)" class="st1" width="43.5" height="0.9"/>
					
						<rect x="175.2" y="23.9" transform="matrix(0.9006 -0.4346 0.4346 0.9006 8.9982 88.0072)" class="st1" width="43.5" height="0.9"/>
					
						<rect x="175.2" y="26.1" transform="matrix(0.9006 -0.4346 0.4346 0.9006 8.0432 88.2281)" class="st1" width="43.5" height="0.9"/>
					
						<rect x="175.2" y="28.3" transform="matrix(0.9006 -0.4346 0.4346 0.9006 7.0882 88.449)" class="st1" width="43.5" height="0.9"/>
					
						<rect x="175.2" y="30.5" transform="matrix(0.9006 -0.4346 0.4346 0.9006 6.1332 88.67)" class="st1" width="43.5" height="0.9"/>
					
						<rect x="175.2" y="32.7" transform="matrix(0.9006 -0.4346 0.4346 0.9006 5.1782 88.8909)" class="st1" width="43.5" height="0.9"/>
					
						<rect x="175.2" y="34.9" transform="matrix(0.9006 -0.4346 0.4346 0.9006 4.2232 89.1118)" class="st1" width="43.5" height="0.9"/>
					
						<rect x="175.2" y="37" transform="matrix(0.9006 -0.4346 0.4346 0.9006 3.303 89.3049)" class="st1" width="43.5" height="0.9"/>
					
						<rect x="175.2" y="39.2" transform="matrix(0.9006 -0.4346 0.4346 0.9006 2.348 89.5258)" class="st1" width="43.5" height="0.9"/>
				</g>
			</g>
		</g>
	</g>
</g>
</svg>
