<?xml version="1.0" encoding="utf-8"?>
<!-- Generator: Adobe Illustrator 22.1.0, SVG Export Plug-In . SVG Version: 6.00 Build 0)  -->
<svg version="1.1" xmlns="http://www.w3.org/2000/svg" xmlns:xlink="http://www.w3.org/1999/xlink" x="0px" y="0px"
	 viewBox="0 0 375 352" style="enable-background:new 0 0 375 352;" xml:space="preserve">
<style type="text/css">
	.st0{fill:#00BF9C;}
	.st1{fill:#FFFFFF;}
	.st2{fill:#F2F2F2;}
	.st3{fill:#2B485A;}
	.st4{fill:#F4F4F4;}
	.st5{fill:#0C0C0C;}
	.st6{fill:#D6D8D8;}
	.st7{fill:#111111;}
	.st8{fill:#F2F4F4;}
	.st9{fill:#F9F9F9;}
	.st10{fill:#11EDC2;}
	.st11{fill:#EDF2F1;}
	.st12{fill:#2B2B2B;stroke:#FFFFFF;stroke-miterlimit:10;}
	.st13{fill:#F5F7F7;}
	.st14{fill:#00ABE7;}
	.st15{fill:#291200;stroke:#FF7300;stroke-width:7;stroke-miterlimit:10;}
	.st16{fill:none;}
	.st17{font-family:'Impact';}
	.st18{font-size:22px;}
</style>
<g id="Layer_1">
	<g>
		<rect x="-768.5" y="-790.5" class="st0" width="959" height="599"/>
		<path d="M190-790v598h-958v-598H190 M191-791h-960v600h960V-791L191-791z"/>
	</g>
	<text transform="matrix(1 0 0 1 115 -72)" class="st1" style="font-family:'SourceSansPro-Black'; font-size:48px;">Tools</text>
	<rect x="52" y="73" class="st1" width="230" height="110"/>
	<rect x="-235" y="26" class="st2" width="158" height="108"/>
	<rect x="-235" y="26" class="st3" width="158" height="17.7"/>
	<rect x="-231.3" y="31.1" class="st1" width="128.5" height="7.6"/>
	<ellipse class="st1" cx="-96.9" cy="34.4" rx="3" ry="3.4"/>
	<ellipse class="st1" cx="-89.6" cy="34.4" rx="3" ry="3.4"/>
	<ellipse class="st1" cx="-82.2" cy="34.4" rx="3" ry="3.4"/>
	<g>
		<rect x="181.5" y="119.5" class="st1" width="151" height="38"/>
		<path d="M332,120v37H182v-37H332 M333,119H181v39h152V119L333,119z"/>
	</g>
	<g>
		<path class="st4" d="M251,116.5c-5.2,0-9.5-4.3-9.5-9.5V70c0-5.2,4.3-9.5,9.5-9.5h10c5.2,0,9.5,4.3,9.5,9.5v37
			c0,5.2-4.3,9.5-9.5,9.5H251z"/>
		<path class="st5" d="M261,63c3.9,0,7,3.1,7,7v37c0,3.9-3.1,7-7,7h-10c-3.9,0-7-3.1-7-7V70c0-3.9,3.1-7,7-7H261 M261,58h-10
			c-6.6,0-12,5.4-12,12v37c0,6.6,5.4,12,12,12h10c6.6,0,12-5.4,12-12V70C273,63.4,267.6,58,261,58L261,58z"/>
	</g>
</g>
<g id="Layer_2">
	<g>
		<polygon class="st6" points="142.4,252.1 132.9,252.1 132.9,256 223.8,256 223.8,252.1 215.6,252.1 215.6,212.7 142.4,212.7 		"/>
		<path class="st7" d="M0,0v179.9h358V0H0z M343.1,165.4H16.3V21h326.8V165.4z"/>
		<polygon class="st8" points="0,212.7 142.4,212.7 215.6,212.7 358,212.7 358,179.9 0,179.9 		"/>
		<rect x="16.3" y="21" class="st9" width="326.8" height="144.4"/>
	</g>
	<rect x="71" y="285.1" class="st10" width="209.2" height="61.6"/>
	<rect x="78.4" y="290.4" class="st11" width="9.8" height="10.7"/>
	<rect x="90.6" y="290.4" class="st11" width="9.8" height="10.7"/>
	<rect x="102.9" y="290.4" class="st11" width="9.8" height="10.7"/>
	<rect x="115.1" y="290.4" class="st11" width="9.8" height="10.7"/>
	<rect x="127.4" y="290.4" class="st11" width="9.8" height="10.7"/>
	<rect x="139.6" y="290.4" class="st11" width="9.8" height="10.7"/>
	<rect x="151.9" y="290.4" class="st11" width="9.8" height="10.7"/>
	<rect x="164.2" y="290.4" class="st11" width="9.8" height="10.7"/>
	<rect x="176.4" y="290.4" class="st11" width="9.8" height="10.7"/>
	<rect x="188.7" y="290.4" class="st11" width="9.8" height="10.7"/>
	<rect x="200.9" y="290.4" class="st11" width="9.8" height="10.7"/>
	<rect x="213.2" y="290.4" class="st11" width="9.8" height="10.7"/>
	<rect x="226.3" y="290.4" class="st11" width="9.8" height="10.7"/>
	<rect x="238.5" y="290.4" class="st11" width="9.8" height="10.7"/>
	<rect x="250.8" y="290.4" class="st11" width="9.8" height="10.7"/>
	<rect x="263" y="290.4" class="st11" width="9.8" height="10.7"/>
	<rect x="78.4" y="303.8" class="st11" width="9.8" height="10.7"/>
	<rect x="90.6" y="303.8" class="st11" width="9.8" height="10.7"/>
	<rect x="102.9" y="303.8" class="st11" width="9.8" height="10.7"/>
	<rect x="115.1" y="303.8" class="st11" width="9.8" height="10.7"/>
	<rect x="127.4" y="303.8" class="st11" width="9.8" height="10.7"/>
	<rect x="139.6" y="303.8" class="st11" width="9.8" height="10.7"/>
	<rect x="151.9" y="303.8" class="st11" width="9.8" height="10.7"/>
	<rect x="164.2" y="303.8" class="st11" width="9.8" height="10.7"/>
	<rect x="176.4" y="303.8" class="st11" width="9.8" height="10.7"/>
	<rect x="188.7" y="303.8" class="st11" width="9.8" height="10.7"/>
	<rect x="200.9" y="303.8" class="st11" width="9.8" height="10.7"/>
	<rect x="213.2" y="303.8" class="st11" width="9.8" height="10.7"/>
	<rect x="226.3" y="303.8" class="st11" width="9.8" height="10.7"/>
	<rect x="238.5" y="303.8" class="st11" width="9.8" height="10.7"/>
	<rect x="250.8" y="303.8" class="st11" width="9.8" height="10.7"/>
	<rect x="263" y="303.8" class="st11" width="9.8" height="10.7"/>
	<rect x="78.4" y="317.2" class="st11" width="9.8" height="10.7"/>
	<rect x="90.6" y="317.2" class="st11" width="9.8" height="10.7"/>
	<rect x="102.9" y="317.2" class="st11" width="9.8" height="10.7"/>
	<rect x="115.1" y="317.2" class="st11" width="9.8" height="10.7"/>
	<rect x="127.4" y="317.2" class="st11" width="9.8" height="10.7"/>
	<rect x="139.6" y="317.2" class="st11" width="9.8" height="10.7"/>
	<rect x="151.9" y="317.2" class="st11" width="9.8" height="10.7"/>
	<rect x="164.2" y="317.2" class="st11" width="9.8" height="10.7"/>
	<rect x="176.4" y="317.2" class="st11" width="9.8" height="10.7"/>
	<rect x="188.7" y="317.2" class="st11" width="9.8" height="10.7"/>
	<rect x="200.9" y="317.2" class="st11" width="9.8" height="10.7"/>
	<rect x="213.2" y="317.2" class="st11" width="9.8" height="10.7"/>
	<rect x="226.3" y="317.2" class="st11" width="9.8" height="10.7"/>
	<rect x="238.5" y="317.2" class="st11" width="9.8" height="10.7"/>
	<rect x="250.8" y="317.2" class="st11" width="9.8" height="10.7"/>
	<rect x="263" y="317.2" class="st11" width="9.8" height="10.7"/>
	<rect x="78.4" y="330.6" class="st11" width="9.8" height="10.7"/>
	<rect x="90.6" y="330.6" class="st11" width="9.8" height="10.7"/>
	<rect x="102.9" y="330.6" class="st11" width="9.8" height="10.7"/>
	<rect x="115.1" y="330.6" class="st11" width="9.8" height="10.7"/>
	<rect x="127.4" y="330.6" class="st11" width="9.8" height="10.7"/>
	<rect x="139.6" y="330.6" class="st11" width="9.8" height="10.7"/>
	<rect x="151.9" y="330.6" class="st11" width="9.8" height="10.7"/>
	<rect x="164.2" y="330.6" class="st11" width="9.8" height="10.7"/>
	<rect x="176.4" y="330.6" class="st11" width="9.8" height="10.7"/>
	<rect x="188.7" y="330.6" class="st11" width="9.8" height="10.7"/>
	<rect x="200.9" y="330.6" class="st11" width="9.8" height="10.7"/>
	<rect x="213.2" y="330.6" class="st11" width="9.8" height="10.7"/>
	<rect x="226.3" y="330.6" class="st11" width="9.8" height="10.7"/>
	<rect x="238.5" y="330.6" class="st11" width="9.8" height="10.7"/>
	<rect x="250.8" y="330.6" class="st11" width="9.8" height="10.7"/>
	<rect x="263" y="330.6" class="st11" width="9.8" height="10.7"/>
	<line class="st12" x1="178.1" y1="219" x2="178.1" y2="285.1"/>
	<ellipse class="st13" cx="363.6" cy="326.6" rx="11.4" ry="25.4"/>
	<g>
		<g>
			<path class="st13" d="M178.3,222.2c9.5,12.3,23.4,18.9,38,23.1c18.5,5.4,37.8,8.5,57,9.8c19.6,1.4,40.3,0.6,58.6,8.8
				c15.5,6.9,28.1,19.9,31.3,36.9c0.2,0.9,1.6,0.5,1.4-0.4c-4.7-24.6-27.4-39-50.6-43.3c-14.7-2.7-29.7-2.5-44.6-3.7
				c-16.3-1.4-32.5-4.1-48.3-8.3c-15.7-4.1-31.3-10.4-41.5-23.6C179,220.7,177.7,221.4,178.3,222.2L178.3,222.2z"/>
		</g>
	</g>
</g>
<g id="Layer_3">
	<g>
		<path class="st14" d="M122.1,45.3H43.9c-4.4,0-7.9,4-7.9,8.9v79c0,4.9,3.6,8.9,7.9,8.9h78.1c4.4,0,7.9-4,7.9-8.9v-79
			C130,49.3,126.4,45.3,122.1,45.3z M119.4,122.1c0,4.9-3.6,8.9-7.9,8.9H56.5c-4.4,0-7.9-4-7.9-8.9V66c0-4.9,3.6-8.9,7.9-8.9h54.9
			c4.4,0,7.9,4,7.9,8.9V122.1z"/>
		<path class="st1" d="M111.5,57.1H56.5c-4.4,0-7.9,4-7.9,8.9v56.1c0,4.9,3.6,8.9,7.9,8.9h54.9c4.4,0,7.9-4,7.9-8.9V66
			C119.4,61.1,115.8,57.1,111.5,57.1z"/>
	</g>
	<g>
		<g>
			<path d="M79.5,115.4H63.6c0-2.6,0-6.2,0-10.8s0-8.7,0-12.3c0-4,0-7.8,0-11.4s0-6.9,0-9.8h15.9v8.3h-5.9c0,1.3,0,3.3,0,6
				s0,5.1,0,7c0,1.5,0,3.6,0,6.2c0,2.6,0,5.5,0,8.6h5.9V115.4z"/>
			<path d="M105.7,115.4H89.8v-8.2h5.9c0-3,0-5.8,0-8.3s0-4.7,0-6.5c0-1.8,0-4.2,0-7.1s0-4.9,0-6h-5.9V71h15.9c0,2.9,0,6.2,0,9.7
				c0,3.6,0,7.4,0,11.5c0,3.3,0,7.3,0,12C105.7,109,105.7,112.7,105.7,115.4z"/>
		</g>
	</g>
</g>
<g id="Layer_4">
	<rect x="-128.5" y="242.5" class="st15" width="93" height="95"/>
	<line class="st16" x1="37" y1="47" x2="91" y2="47"/>
	<text transform="matrix(1 0 0 1 161.9521 86.4756)"><tspan x="0" y="0" class="st17 st18">Coding your</tspan><tspan x="0" y="26.4" class="st17 st18">awesome idea!</tspan></text>
</g>
</svg>
