<?xml version="1.0" encoding="utf-8"?>
<!-- Generator: Adobe Illustrator 22.1.0, SVG Export Plug-In . SVG Version: 6.00 Build 0)  -->
<svg version="1.1" xmlns="http://www.w3.org/2000/svg" xmlns:xlink="http://www.w3.org/1999/xlink" x="0px" y="0px"
	 viewBox="0 0 142 130" style="enable-background:new 0 0 142 130;" xml:space="preserve">
<style type="text/css">
	.st0{fill:#00BF9C;}
	.st1{fill:#FFFFFF;}
	.st2{fill:#F2F2F2;}
	.st3{fill:#2B485A;}
	.st4{fill:#F4F4F4;}
	.st5{fill:#0C0C0C;}
	.st6{fill:#D6D8D8;}
	.st7{fill:#111111;}
	.st8{fill:#F2F4F4;}
	.st9{fill:#F9F9F9;}
	.st10{fill:#11EDC2;}
	.st11{fill:#EDF2F1;}
	.st12{fill:#2B2B2B;stroke:#FFFFFF;stroke-miterlimit:10;}
	.st13{fill:#F5F7F7;}
	.st14{fill:#00ABE7;}
	.st15{fill:#291200;stroke:#FF7300;stroke-width:7;stroke-miterlimit:10;}
	.st16{fill:#1F1C38;stroke:#0AC4EF;stroke-width:8;stroke-miterlimit:10;}
	.st17{fill:#FF7300;}
	.st18{stroke:#FFFFFF;stroke-miterlimit:10;}
	.st19{fill:#011D21;stroke:#FFFFFF;stroke-miterlimit:10;}
	.st20{fill:#222323;}
	.st21{fill:none;}
	.st22{fill:#FFFFFF;stroke:#FFFFFF;stroke-width:2;stroke-miterlimit:10;}
	.st23{fill:#CCCECE;}
	.st24{fill:#B8C9C8;}
</style>
<g id="Layer_1">
	<g>
		<rect x="272.5" y="-368.5" class="st0" width="959" height="599"/>
		<path d="M1231-368v598H273v-598H1231 M1232-369H272v600h960V-369L1232-369z"/>
	</g>
	<text transform="matrix(1 0 0 1 341 -269)" class="st1" style="font-family:'SourceSansPro-Black'; font-size:48px;">Tools</text>
	<rect x="278" y="-124" class="st1" width="230" height="110"/>
	<rect x="-9" y="-171" class="st2" width="158" height="108"/>
	<rect x="-9" y="-171" class="st3" width="158" height="17.7"/>
	<rect x="-5.3" y="-165.9" class="st1" width="128.5" height="7.6"/>
	<ellipse class="st1" cx="129.1" cy="-162.6" rx="3" ry="3.4"/>
	<ellipse class="st1" cx="136.4" cy="-162.6" rx="3" ry="3.4"/>
	<ellipse class="st1" cx="143.8" cy="-162.6" rx="3" ry="3.4"/>
	<g>
		<rect x="407.5" y="-77.5" class="st1" width="151" height="38"/>
		<path d="M558-77v37H408v-37H558 M559-78H407v39h152V-78L559-78z"/>
	</g>
	<g>
		<path class="st4" d="M477-80.5c-5.2,0-9.5-4.3-9.5-9.5v-37c0-5.2,4.3-9.5,9.5-9.5h10c5.2,0,9.5,4.3,9.5,9.5v37
			c0,5.2-4.3,9.5-9.5,9.5H477z"/>
		<path class="st5" d="M487-134c3.9,0,7,3.1,7,7v37c0,3.9-3.1,7-7,7h-10c-3.9,0-7-3.1-7-7v-37c0-3.9,3.1-7,7-7H487 M487-139h-10
			c-6.6,0-12,5.4-12,12v37c0,6.6,5.4,12,12,12h10c6.6,0,12-5.4,12-12v-37C499-133.6,493.6-139,487-139L487-139z"/>
	</g>
</g>
<g id="Layer_2">
	<g>
		<polygon class="st6" points="368.4,55.1 358.9,55.1 358.9,59 449.8,59 449.8,55.1 441.6,55.1 441.6,15.7 368.4,15.7 		"/>
		<path class="st7" d="M226-197v179.9h358V-197H226z M569.1-31.6H242.3V-176h326.8V-31.6z"/>
		<polygon class="st8" points="226,15.7 368.4,15.7 441.6,15.7 584,15.7 584,-17.1 226,-17.1 		"/>
		<rect x="242.3" y="-176" class="st9" width="326.8" height="144.4"/>
	</g>
	<rect x="297" y="88.1" class="st10" width="209.2" height="61.6"/>
	<rect x="304.4" y="93.4" class="st11" width="9.8" height="10.7"/>
	<rect x="316.6" y="93.4" class="st11" width="9.8" height="10.7"/>
	<rect x="328.9" y="93.4" class="st11" width="9.8" height="10.7"/>
	<rect x="341.1" y="93.4" class="st11" width="9.8" height="10.7"/>
	<rect x="353.4" y="93.4" class="st11" width="9.8" height="10.7"/>
	<rect x="365.6" y="93.4" class="st11" width="9.8" height="10.7"/>
	<rect x="377.9" y="93.4" class="st11" width="9.8" height="10.7"/>
	<rect x="390.2" y="93.4" class="st11" width="9.8" height="10.7"/>
	<rect x="402.4" y="93.4" class="st11" width="9.8" height="10.7"/>
	<rect x="414.7" y="93.4" class="st11" width="9.8" height="10.7"/>
	<rect x="426.9" y="93.4" class="st11" width="9.8" height="10.7"/>
	<rect x="439.2" y="93.4" class="st11" width="9.8" height="10.7"/>
	<rect x="452.3" y="93.4" class="st11" width="9.8" height="10.7"/>
	<rect x="464.5" y="93.4" class="st11" width="9.8" height="10.7"/>
	<rect x="476.8" y="93.4" class="st11" width="9.8" height="10.7"/>
	<rect x="489" y="93.4" class="st11" width="9.8" height="10.7"/>
	<rect x="304.4" y="106.8" class="st11" width="9.8" height="10.7"/>
	<rect x="316.6" y="106.8" class="st11" width="9.8" height="10.7"/>
	<rect x="328.9" y="106.8" class="st11" width="9.8" height="10.7"/>
	<rect x="341.1" y="106.8" class="st11" width="9.8" height="10.7"/>
	<rect x="353.4" y="106.8" class="st11" width="9.8" height="10.7"/>
	<rect x="365.6" y="106.8" class="st11" width="9.8" height="10.7"/>
	<rect x="377.9" y="106.8" class="st11" width="9.8" height="10.7"/>
	<rect x="390.2" y="106.8" class="st11" width="9.8" height="10.7"/>
	<rect x="402.4" y="106.8" class="st11" width="9.8" height="10.7"/>
	<rect x="414.7" y="106.8" class="st11" width="9.8" height="10.7"/>
	<rect x="426.9" y="106.8" class="st11" width="9.8" height="10.7"/>
	<rect x="439.2" y="106.8" class="st11" width="9.8" height="10.7"/>
	<rect x="452.3" y="106.8" class="st11" width="9.8" height="10.7"/>
	<rect x="464.5" y="106.8" class="st11" width="9.8" height="10.7"/>
	<rect x="476.8" y="106.8" class="st11" width="9.8" height="10.7"/>
	<rect x="489" y="106.8" class="st11" width="9.8" height="10.7"/>
	<rect x="304.4" y="120.2" class="st11" width="9.8" height="10.7"/>
	<rect x="316.6" y="120.2" class="st11" width="9.8" height="10.7"/>
	<rect x="328.9" y="120.2" class="st11" width="9.8" height="10.7"/>
	<rect x="341.1" y="120.2" class="st11" width="9.8" height="10.7"/>
	<rect x="353.4" y="120.2" class="st11" width="9.8" height="10.7"/>
	<rect x="365.6" y="120.2" class="st11" width="9.8" height="10.7"/>
	<rect x="377.9" y="120.2" class="st11" width="9.8" height="10.7"/>
	<rect x="390.2" y="120.2" class="st11" width="9.8" height="10.7"/>
	<rect x="402.4" y="120.2" class="st11" width="9.8" height="10.7"/>
	<rect x="414.7" y="120.2" class="st11" width="9.8" height="10.7"/>
	<rect x="426.9" y="120.2" class="st11" width="9.8" height="10.7"/>
	<rect x="439.2" y="120.2" class="st11" width="9.8" height="10.7"/>
	<rect x="452.3" y="120.2" class="st11" width="9.8" height="10.7"/>
	<rect x="464.5" y="120.2" class="st11" width="9.8" height="10.7"/>
	<rect x="476.8" y="120.2" class="st11" width="9.8" height="10.7"/>
	<rect x="489" y="120.2" class="st11" width="9.8" height="10.7"/>
	<rect x="304.4" y="133.6" class="st11" width="9.8" height="10.7"/>
	<rect x="316.6" y="133.6" class="st11" width="9.8" height="10.7"/>
	<rect x="328.9" y="133.6" class="st11" width="9.8" height="10.7"/>
	<rect x="341.1" y="133.6" class="st11" width="9.8" height="10.7"/>
	<rect x="353.4" y="133.6" class="st11" width="9.8" height="10.7"/>
	<rect x="365.6" y="133.6" class="st11" width="9.8" height="10.7"/>
	<rect x="377.9" y="133.6" class="st11" width="9.8" height="10.7"/>
	<rect x="390.2" y="133.6" class="st11" width="9.8" height="10.7"/>
	<rect x="402.4" y="133.6" class="st11" width="9.8" height="10.7"/>
	<rect x="414.7" y="133.6" class="st11" width="9.8" height="10.7"/>
	<rect x="426.9" y="133.6" class="st11" width="9.8" height="10.7"/>
	<rect x="439.2" y="133.6" class="st11" width="9.8" height="10.7"/>
	<rect x="452.3" y="133.6" class="st11" width="9.8" height="10.7"/>
	<rect x="464.5" y="133.6" class="st11" width="9.8" height="10.7"/>
	<rect x="476.8" y="133.6" class="st11" width="9.8" height="10.7"/>
	<rect x="489" y="133.6" class="st11" width="9.8" height="10.7"/>
	<line class="st12" x1="404.1" y1="22" x2="404.1" y2="88.1"/>
	<ellipse class="st13" cx="589.6" cy="129.6" rx="11.4" ry="25.4"/>
	<g>
		<g>
			<path class="st13" d="M404.3,25.2c9.5,12.3,23.4,18.9,38,23.1c18.5,5.4,37.8,8.5,57,9.8c19.6,1.4,40.3,0.6,58.6,8.8
				c15.5,6.9,28.1,19.9,31.3,36.9c0.2,0.9,1.6,0.5,1.4-0.4c-4.7-24.6-27.4-39-50.6-43.3c-14.7-2.7-29.7-2.5-44.6-3.7
				c-16.3-1.4-32.5-4.1-48.3-8.3c-15.7-4.1-31.3-10.4-41.5-23.6C405,23.7,403.7,24.4,404.3,25.2L404.3,25.2z"/>
		</g>
	</g>
</g>
<g id="Layer_3">
	<g>
		<path class="st14" d="M130,0H12C5.4,0,0,5.4,0,12v107c0,6.6,5.4,12,12,12h118c6.6,0,12-5.4,12-12V12C142,5.4,136.6,0,130,0z
			 M126,104c0,6.6-5.4,12-12,12H31c-6.6,0-12-5.4-12-12V28c0-6.6,5.4-12,12-12h83c6.6,0,12,5.4,12,12V104z"/>
		<path class="st1" d="M114,16H31c-6.6,0-12,5.4-12,12v76c0,6.6,5.4,12,12,12h83c6.6,0,12-5.4,12-12V28C126,21.4,120.6,16,114,16z"
			/>
	</g>
	<g>
		<g>
			<path d="M65.8,95H41.7c0-3.5,0-8.4,0-14.7s0-11.8,0-16.7c0-5.4,0-10.6,0-15.5s0-9.3,0-13.3h24.1v11.3h-8.9c0,1.8,0,4.5,0,8.2
				c0,3.7,0,6.9,0,9.5c0,2.1,0,4.9,0,8.4c0,3.6,0,7.4,0,11.7h8.9V95z"/>
			<path d="M105.3,95H81.2V83.9h8.9c0-4.1,0-7.9,0-11.3s0-6.3,0-8.8c0-2.5,0-5.7,0-9.6s0-6.6,0-8.1h-8.9V34.8h24.1
				c0,3.9,0,8.3,0,13.2s0,10.1,0,15.6c0,4.4,0,9.8,0,16.3C105.3,86.3,105.3,91.4,105.3,95z"/>
		</g>
	</g>
</g>
<g id="Layer_4">
	<rect x="679" y="-219" class="st15" width="93" height="95"/>
	<rect x="679.5" y="-68.5" class="st16" width="93" height="95"/>
	<text transform="matrix(1 0 0 1 699 -150)" class="st17" style="font-family:'SourceSansPro-Black'; font-size:60px;">Ai</text>
	<g>
		<text transform="matrix(1 0 0 1 695 -3)" style="fill:#0AC4EF; font-family:'SourceSansPro-Black'; font-size:60px;">Ps</text>
	</g>
	<rect x="679" y="88" class="st18" width="94" height="94"/>
	<rect x="685.5" y="93.5" class="st19" width="80" height="84"/>
	<text transform="matrix(1 0 0 1 695 112)" class="st1" style="font-family:'SourceSansPro-Black'; font-size:18px;">&gt;_</text>
	<g>
		<rect x="250.5" y="-165.5" class="st20" width="151" height="126"/>
		<path d="M401-165v125H251v-125H401 M402-166H250v127h152V-166L402-166z"/>
	</g>
	<g>
		<rect x="407.5" y="-165.5" class="st1" width="151" height="126"/>
		<path d="M558-165v125H408v-125H558 M559-166H407v127h152V-166L559-166z"/>
	</g>
	<line class="st21" x1="263" y1="-150" x2="317" y2="-150"/>
	<line class="st21" x1="263" y1="-128" x2="334" y2="-129"/>
	<line class="st22" x1="263" y1="-150" x2="317" y2="-150"/>
	<line class="st22" x1="277" y1="-139" x2="331" y2="-139"/>
	<line class="st22" x1="290" y1="-129" x2="344" y2="-129"/>
	<line class="st22" x1="263" y1="-63" x2="383" y2="-63"/>
	<line class="st22" x1="263" y1="-95" x2="317" y2="-95"/>
	<line class="st22" x1="263" y1="-107" x2="317" y2="-107"/>
	<g>
		<rect x="419" y="-153" class="st23" width="129" height="29"/>
	</g>
	<g>
		<rect x="419" y="-116" class="st23" width="29" height="29"/>
	</g>
	<g>
		<rect x="419" y="-78" class="st24" width="129" height="31"/>
	</g>
	<rect x="457" y="-116" class="st23" width="91" height="29"/>
</g>
</svg>
