<?xml version="1.0" encoding="utf-8"?>
<!-- Generator: Adobe Illustrator 22.1.0, SVG Export Plug-In . SVG Version: 6.00 Build 0)  -->
<svg version="1.1" xmlns="http://www.w3.org/2000/svg" xmlns:xlink="http://www.w3.org/1999/xlink" x="0px" y="0px"
	 viewBox="0 0 158 108" style="enable-background:new 0 0 158 108;" xml:space="preserve">
<style type="text/css">
	.st0{fill:#00BF9C;}
	.st1{fill:#FFFFFF;}
	.st2{fill:#F2F2F2;}
	.st3{fill:#2B485A;}
	.st4{fill:#F4F4F4;}
	.st5{fill:#0C0C0C;}
	.st6{fill:#D6D8D8;}
	.st7{fill:#111111;}
	.st8{fill:#F2F4F4;}
	.st9{fill:#F9F9F9;}
	.st10{fill:#11EDC2;}
	.st11{fill:#EDF2F1;}
	.st12{fill:#2B2B2B;stroke:#FFFFFF;stroke-miterlimit:10;}
	.st13{fill:#F5F7F7;}
	.st14{fill:#00ABE7;}
	.st15{fill:#291200;stroke:#FF7300;stroke-width:7;stroke-miterlimit:10;}
	.st16{fill:#1F1C38;stroke:#0AC4EF;stroke-width:8;stroke-miterlimit:10;}
	.st17{fill:#FF7300;}
	.st18{stroke:#FFFFFF;stroke-miterlimit:10;}
	.st19{fill:#011D21;stroke:#FFFFFF;stroke-miterlimit:10;}
	.st20{fill:#222323;}
	.st21{fill:none;}
	.st22{fill:#FFFFFF;stroke:#FFFFFF;stroke-width:2;stroke-miterlimit:10;}
	.st23{fill:#CCCECE;}
	.st24{fill:#B8C9C8;}
</style>
<g id="Layer_1">
	<g>
		<rect x="-71.5" y="-187.5" class="st0" width="959" height="599"/>
		<path d="M887-187v598H-71v-598H887 M888-188H-72v600h960V-188L888-188z"/>
	</g>
	<text transform="matrix(1 0 0 1 350 -98)" class="st1" style="font-family:'SourceSansPro-Black'; font-size:48px;">Tools</text>
	<rect x="287" y="47" class="st1" width="230" height="110"/>
	<rect class="st2" width="158" height="108"/>
	<rect class="st3" width="158" height="17.7"/>
	<rect x="3.7" y="5.1" class="st1" width="128.5" height="7.6"/>
	<ellipse class="st1" cx="138.1" cy="8.4" rx="3" ry="3.4"/>
	<ellipse class="st1" cx="145.4" cy="8.4" rx="3" ry="3.4"/>
	<ellipse class="st1" cx="152.8" cy="8.4" rx="3" ry="3.4"/>
	<g>
		<rect x="416.5" y="93.5" class="st1" width="151" height="38"/>
		<path d="M567,94v37H417V94H567 M568,93H416v39h152V93L568,93z"/>
	</g>
	<g>
		<path class="st4" d="M486,90.5c-5.2,0-9.5-4.3-9.5-9.5V44c0-5.2,4.3-9.5,9.5-9.5h10c5.2,0,9.5,4.3,9.5,9.5v37
			c0,5.2-4.3,9.5-9.5,9.5H486z"/>
		<path class="st5" d="M496,37c3.9,0,7,3.1,7,7v37c0,3.9-3.1,7-7,7h-10c-3.9,0-7-3.1-7-7V44c0-3.9,3.1-7,7-7H496 M496,32h-10
			c-6.6,0-12,5.4-12,12v37c0,6.6,5.4,12,12,12h10c6.6,0,12-5.4,12-12V44C508,37.4,502.6,32,496,32L496,32z"/>
	</g>
</g>
<g id="Layer_2">
	<g>
		<polygon class="st6" points="377.4,226.1 367.9,226.1 367.9,230 458.8,230 458.8,226.1 450.6,226.1 450.6,186.7 377.4,186.7 		"/>
		<path class="st7" d="M235-26v179.9h358V-26H235z M578.1,139.4H251.3V-5h326.8V139.4z"/>
		<polygon class="st8" points="235,186.7 377.4,186.7 450.6,186.7 593,186.7 593,153.9 235,153.9 		"/>
		<rect x="251.3" y="-5" class="st9" width="326.8" height="144.4"/>
	</g>
	<rect x="306" y="259.1" class="st10" width="209.2" height="61.6"/>
	<rect x="313.4" y="264.4" class="st11" width="9.8" height="10.7"/>
	<rect x="325.6" y="264.4" class="st11" width="9.8" height="10.7"/>
	<rect x="337.9" y="264.4" class="st11" width="9.8" height="10.7"/>
	<rect x="350.1" y="264.4" class="st11" width="9.8" height="10.7"/>
	<rect x="362.4" y="264.4" class="st11" width="9.8" height="10.7"/>
	<rect x="374.6" y="264.4" class="st11" width="9.8" height="10.7"/>
	<rect x="386.9" y="264.4" class="st11" width="9.8" height="10.7"/>
	<rect x="399.2" y="264.4" class="st11" width="9.8" height="10.7"/>
	<rect x="411.4" y="264.4" class="st11" width="9.8" height="10.7"/>
	<rect x="423.7" y="264.4" class="st11" width="9.8" height="10.7"/>
	<rect x="435.9" y="264.4" class="st11" width="9.8" height="10.7"/>
	<rect x="448.2" y="264.4" class="st11" width="9.8" height="10.7"/>
	<rect x="461.3" y="264.4" class="st11" width="9.8" height="10.7"/>
	<rect x="473.5" y="264.4" class="st11" width="9.8" height="10.7"/>
	<rect x="485.8" y="264.4" class="st11" width="9.8" height="10.7"/>
	<rect x="498" y="264.4" class="st11" width="9.8" height="10.7"/>
	<rect x="313.4" y="277.8" class="st11" width="9.8" height="10.7"/>
	<rect x="325.6" y="277.8" class="st11" width="9.8" height="10.7"/>
	<rect x="337.9" y="277.8" class="st11" width="9.8" height="10.7"/>
	<rect x="350.1" y="277.8" class="st11" width="9.8" height="10.7"/>
	<rect x="362.4" y="277.8" class="st11" width="9.8" height="10.7"/>
	<rect x="374.6" y="277.8" class="st11" width="9.8" height="10.7"/>
	<rect x="386.9" y="277.8" class="st11" width="9.8" height="10.7"/>
	<rect x="399.2" y="277.8" class="st11" width="9.8" height="10.7"/>
	<rect x="411.4" y="277.8" class="st11" width="9.8" height="10.7"/>
	<rect x="423.7" y="277.8" class="st11" width="9.8" height="10.7"/>
	<rect x="435.9" y="277.8" class="st11" width="9.8" height="10.7"/>
	<rect x="448.2" y="277.8" class="st11" width="9.8" height="10.7"/>
	<rect x="461.3" y="277.8" class="st11" width="9.8" height="10.7"/>
	<rect x="473.5" y="277.8" class="st11" width="9.8" height="10.7"/>
	<rect x="485.8" y="277.8" class="st11" width="9.8" height="10.7"/>
	<rect x="498" y="277.8" class="st11" width="9.8" height="10.7"/>
	<rect x="313.4" y="291.2" class="st11" width="9.8" height="10.7"/>
	<rect x="325.6" y="291.2" class="st11" width="9.8" height="10.7"/>
	<rect x="337.9" y="291.2" class="st11" width="9.8" height="10.7"/>
	<rect x="350.1" y="291.2" class="st11" width="9.8" height="10.7"/>
	<rect x="362.4" y="291.2" class="st11" width="9.8" height="10.7"/>
	<rect x="374.6" y="291.2" class="st11" width="9.8" height="10.7"/>
	<rect x="386.9" y="291.2" class="st11" width="9.8" height="10.7"/>
	<rect x="399.2" y="291.2" class="st11" width="9.8" height="10.7"/>
	<rect x="411.4" y="291.2" class="st11" width="9.8" height="10.7"/>
	<rect x="423.7" y="291.2" class="st11" width="9.8" height="10.7"/>
	<rect x="435.9" y="291.2" class="st11" width="9.8" height="10.7"/>
	<rect x="448.2" y="291.2" class="st11" width="9.8" height="10.7"/>
	<rect x="461.3" y="291.2" class="st11" width="9.8" height="10.7"/>
	<rect x="473.5" y="291.2" class="st11" width="9.8" height="10.7"/>
	<rect x="485.8" y="291.2" class="st11" width="9.8" height="10.7"/>
	<rect x="498" y="291.2" class="st11" width="9.8" height="10.7"/>
	<rect x="313.4" y="304.6" class="st11" width="9.8" height="10.7"/>
	<rect x="325.6" y="304.6" class="st11" width="9.8" height="10.7"/>
	<rect x="337.9" y="304.6" class="st11" width="9.8" height="10.7"/>
	<rect x="350.1" y="304.6" class="st11" width="9.8" height="10.7"/>
	<rect x="362.4" y="304.6" class="st11" width="9.8" height="10.7"/>
	<rect x="374.6" y="304.6" class="st11" width="9.8" height="10.7"/>
	<rect x="386.9" y="304.6" class="st11" width="9.8" height="10.7"/>
	<rect x="399.2" y="304.6" class="st11" width="9.8" height="10.7"/>
	<rect x="411.4" y="304.6" class="st11" width="9.8" height="10.7"/>
	<rect x="423.7" y="304.6" class="st11" width="9.8" height="10.7"/>
	<rect x="435.9" y="304.6" class="st11" width="9.8" height="10.7"/>
	<rect x="448.2" y="304.6" class="st11" width="9.8" height="10.7"/>
	<rect x="461.3" y="304.6" class="st11" width="9.8" height="10.7"/>
	<rect x="473.5" y="304.6" class="st11" width="9.8" height="10.7"/>
	<rect x="485.8" y="304.6" class="st11" width="9.8" height="10.7"/>
	<rect x="498" y="304.6" class="st11" width="9.8" height="10.7"/>
	<line class="st12" x1="413.1" y1="193" x2="413.1" y2="259.1"/>
	<ellipse class="st13" cx="598.6" cy="300.6" rx="11.4" ry="25.4"/>
	<g>
		<g>
			<path class="st13" d="M413.3,196.2c9.5,12.3,23.4,18.9,38,23.1c18.5,5.4,37.8,8.5,57,9.8c19.6,1.4,40.3,0.6,58.6,8.8
				c15.5,6.9,28.1,19.9,31.3,36.9c0.2,0.9,1.6,0.5,1.4-0.4c-4.7-24.6-27.4-39-50.6-43.3c-14.7-2.7-29.7-2.5-44.6-3.7
				c-16.3-1.4-32.5-4.1-48.3-8.3c-15.7-4.1-31.3-10.4-41.5-23.6C414,194.7,412.7,195.4,413.3,196.2L413.3,196.2z"/>
		</g>
	</g>
</g>
<g id="Layer_3">
	<g>
		<path class="st14" d="M139,171H21c-6.6,0-12,5.4-12,12v107c0,6.6,5.4,12,12,12h118c6.6,0,12-5.4,12-12V183
			C151,176.4,145.6,171,139,171z M135,275c0,6.6-5.4,12-12,12H40c-6.6,0-12-5.4-12-12v-76c0-6.6,5.4-12,12-12h83c6.6,0,12,5.4,12,12
			V275z"/>
		<path class="st1" d="M123,187H40c-6.6,0-12,5.4-12,12v76c0,6.6,5.4,12,12,12h83c6.6,0,12-5.4,12-12v-76
			C135,192.4,129.6,187,123,187z"/>
	</g>
	<g>
		<g>
			<path d="M74.8,266H50.7c0-3.5,0-8.4,0-14.7s0-11.8,0-16.7c0-5.4,0-10.6,0-15.5s0-9.3,0-13.3h24.1v11.3h-8.9c0,1.8,0,4.5,0,8.2
				c0,3.7,0,6.9,0,9.5c0,2.1,0,4.9,0,8.4c0,3.6,0,7.4,0,11.7h8.9V266z"/>
			<path d="M114.3,266H90.2v-11.1h8.9c0-4.1,0-7.9,0-11.3s0-6.3,0-8.8c0-2.5,0-5.7,0-9.6s0-6.6,0-8.1h-8.9v-11.3h24.1
				c0,3.9,0,8.3,0,13.2s0,10.1,0,15.6c0,4.4,0,9.8,0,16.3C114.3,257.3,114.3,262.4,114.3,266z"/>
		</g>
	</g>
</g>
<g id="Layer_4">
	<rect x="688" y="-48" class="st15" width="93" height="95"/>
	<rect x="688.5" y="102.5" class="st16" width="93" height="95"/>
	<text transform="matrix(1 0 0 1 708 21)" class="st17" style="font-family:'SourceSansPro-Black'; font-size:60px;">Ai</text>
	<g>
		<text transform="matrix(1 0 0 1 704 168)" style="fill:#0AC4EF; font-family:'SourceSansPro-Black'; font-size:60px;">Ps</text>
	</g>
	<rect x="688" y="259" class="st18" width="94" height="94"/>
	<rect x="694.5" y="264.5" class="st19" width="80" height="84"/>
	<text transform="matrix(1 0 0 1 704 283)" class="st1" style="font-family:'SourceSansPro-Black'; font-size:18px;">&gt;_</text>
	<g>
		<rect x="259.5" y="5.5" class="st20" width="151" height="126"/>
		<path d="M410,6v125H260V6H410 M411,5H259v127h152V5L411,5z"/>
	</g>
	<g>
		<rect x="416.5" y="5.5" class="st1" width="151" height="126"/>
		<path d="M567,6v125H417V6H567 M568,5H416v127h152V5L568,5z"/>
	</g>
	<line class="st21" x1="272" y1="21" x2="326" y2="21"/>
	<line class="st21" x1="272" y1="43" x2="343" y2="42"/>
	<line class="st22" x1="272" y1="21" x2="326" y2="21"/>
	<line class="st22" x1="286" y1="32" x2="340" y2="32"/>
	<line class="st22" x1="299" y1="42" x2="353" y2="42"/>
	<line class="st22" x1="272" y1="108" x2="392" y2="108"/>
	<line class="st22" x1="272" y1="76" x2="326" y2="76"/>
	<line class="st22" x1="272" y1="64" x2="326" y2="64"/>
	<g>
		<rect x="428" y="18" class="st23" width="129" height="29"/>
	</g>
	<g>
		<rect x="428" y="55" class="st23" width="29" height="29"/>
	</g>
	<g>
		<rect x="428" y="93" class="st24" width="129" height="31"/>
	</g>
	<rect x="466" y="55" class="st23" width="91" height="29"/>
</g>
</svg>
