<?xml version="1.0" encoding="utf-8"?>
<!-- Generator: Adobe Illustrator 22.1.0, SVG Export Plug-In . SVG Version: 6.00 Build 0)  -->
<svg version="1.1" id="DC_Crest" xmlns="http://www.w3.org/2000/svg" xmlns:xlink="http://www.w3.org/1999/xlink" x="0px" y="0px"
	 viewBox="0 0 215.9 253.7" style="enable-background:new 0 0 215.9 253.7;" xml:space="preserve">
<style type="text/css">
	.st0{fill:#FFFFFF;}
</style>
<path class="st0" d="M8.4,103.2h90.3V8.4H8.4V103.2z M74.8,78.2H32.1V33.4h42.7V78.2z"/>
<path class="st0" d="M118.9,103.2h90.2V8.4h-90.2V103.2z M185.4,78.2h-42.7V33.4h42.7V78.2z"/>
<path class="st0" d="M8.5,124.9c-0.4,4-0.6,8-0.6,12c0,55.4,39.4,100.9,90.1,107.1V124.9H8.5 M75.5,211.7
	C44.9,196.9,32.2,163,33.3,149h42.2V211.7z"/>
<path class="st0" d="M208.9,124.9h-89.4V244c50.7-6.2,90.1-51.8,90.1-107.1C209.6,132.9,209.3,128.8,208.9,124.9 M141.9,211.7V149
	h42.2C185.2,163,172.5,196.9,141.9,211.7"/>
</svg>
