<?xml version="1.0" encoding="utf-8"?>
<!-- Generator: Adobe Illustrator 22.1.0, SVG Export Plug-In . SVG Version: 6.00 Build 0)  -->
<svg version="1.1" xmlns="http://www.w3.org/2000/svg" xmlns:xlink="http://www.w3.org/1999/xlink" x="0px" y="0px"
	 viewBox="0 0 101 102" style="enable-background:new 0 0 101 102;" xml:space="preserve">
<style type="text/css">
	.st0{fill:#FFFFFF;}
	.st1{fill:#F2F2F2;}
	.st2{fill:#2B485A;}
	.st3{fill:#F4F4F4;}
	.st4{fill:#0C0C0C;}
	.st5{fill:#D6D8D8;}
	.st6{fill:#111111;}
	.st7{fill:#F2F4F4;}
	.st8{fill:#F9F9F9;}
	.st9{fill:#11EDC2;}
	.st10{fill:#EDF2F1;}
	.st11{fill:#2B2B2B;stroke:#FFFFFF;stroke-miterlimit:10;}
	.st12{fill:#F5F7F7;}
	.st13{fill:#00ABE7;}
	.st14{fill:#291200;stroke:#FF7300;stroke-width:7;stroke-miterlimit:10;}
	.st15{fill:#1F1C38;stroke:#0AC4EF;stroke-width:8;stroke-miterlimit:10;}
	.st16{fill:#FF7300;}
	.st17{font-family:'SourceSansPro-Black';}
	.st18{font-size:60px;}
	.st19{stroke:#FFFFFF;stroke-miterlimit:10;}
	.st20{fill:#011D21;stroke:#FFFFFF;stroke-miterlimit:10;}
	.st21{fill:#222323;}
	.st22{fill:none;}
	.st23{fill:#FFFFFF;stroke:#FFFFFF;stroke-width:2;stroke-miterlimit:10;}
	.st24{fill:#CCCECE;}
	.st25{fill:#B8C9C8;}
</style>
<g id="Layer_1">
	<text transform="matrix(1 0 0 1 -334 -47)" class="st0 st17" style="font-size:48px;">Tools</text>
	<rect x="-397" y="98" class="st0" width="230" height="110"/>
	<rect x="-684" y="51" class="st1" width="158" height="108"/>
	<rect x="-684" y="51" class="st2" width="158" height="17.7"/>
	<rect x="-680.3" y="56.1" class="st0" width="128.5" height="7.6"/>
	<ellipse class="st0" cx="-545.9" cy="59.4" rx="3" ry="3.4"/>
	<ellipse class="st0" cx="-538.6" cy="59.4" rx="3" ry="3.4"/>
	<ellipse class="st0" cx="-531.2" cy="59.4" rx="3" ry="3.4"/>
	<g>
		<rect x="-267.5" y="144.5" class="st0" width="151" height="38"/>
		<path d="M-117,145v37h-150v-37H-117 M-116,144h-152v39h152V144L-116,144z"/>
	</g>
	<g>
		<path class="st3" d="M-198,141.5c-5.2,0-9.5-4.3-9.5-9.5V95c0-5.2,4.3-9.5,9.5-9.5h10c5.2,0,9.5,4.3,9.5,9.5v37
			c0,5.2-4.3,9.5-9.5,9.5H-198z"/>
		<path class="st4" d="M-188,88c3.9,0,7,3.1,7,7v37c0,3.9-3.1,7-7,7h-10c-3.9,0-7-3.1-7-7V95c0-3.9,3.1-7,7-7H-188 M-188,83h-10
			c-6.6,0-12,5.4-12,12v37c0,6.6,5.4,12,12,12h10c6.6,0,12-5.4,12-12V95C-176,88.4-181.4,83-188,83L-188,83z"/>
	</g>
</g>
<g id="Layer_2">
	<g>
		<polygon class="st5" points="-306.6,277.1 -316.1,277.1 -316.1,281 -225.2,281 -225.2,277.1 -233.4,277.1 -233.4,237.7 
			-306.6,237.7 		"/>
		<path class="st6" d="M-449,25v179.9h358V25H-449z M-105.9,190.4h-326.8V46h326.8V190.4z"/>
		<polygon class="st7" points="-449,237.7 -306.6,237.7 -233.4,237.7 -91,237.7 -91,204.9 -449,204.9 		"/>
		<rect x="-432.7" y="46" class="st8" width="326.8" height="144.4"/>
	</g>
	<rect x="-378" y="310.1" class="st9" width="209.2" height="61.6"/>
	<rect x="-370.6" y="315.4" class="st10" width="9.8" height="10.7"/>
	<rect x="-358.4" y="315.4" class="st10" width="9.8" height="10.7"/>
	<rect x="-346.1" y="315.4" class="st10" width="9.8" height="10.7"/>
	<rect x="-333.9" y="315.4" class="st10" width="9.8" height="10.7"/>
	<rect x="-321.6" y="315.4" class="st10" width="9.8" height="10.7"/>
	<rect x="-309.4" y="315.4" class="st10" width="9.8" height="10.7"/>
	<rect x="-297.1" y="315.4" class="st10" width="9.8" height="10.7"/>
	<rect x="-284.8" y="315.4" class="st10" width="9.8" height="10.7"/>
	<rect x="-272.6" y="315.4" class="st10" width="9.8" height="10.7"/>
	<rect x="-260.3" y="315.4" class="st10" width="9.8" height="10.7"/>
	<rect x="-248.1" y="315.4" class="st10" width="9.8" height="10.7"/>
	<rect x="-235.8" y="315.4" class="st10" width="9.8" height="10.7"/>
	<rect x="-222.7" y="315.4" class="st10" width="9.8" height="10.7"/>
	<rect x="-210.5" y="315.4" class="st10" width="9.8" height="10.7"/>
	<rect x="-198.2" y="315.4" class="st10" width="9.8" height="10.7"/>
	<rect x="-186" y="315.4" class="st10" width="9.8" height="10.7"/>
	<rect x="-370.6" y="328.8" class="st10" width="9.8" height="10.7"/>
	<rect x="-358.4" y="328.8" class="st10" width="9.8" height="10.7"/>
	<rect x="-346.1" y="328.8" class="st10" width="9.8" height="10.7"/>
	<rect x="-333.9" y="328.8" class="st10" width="9.8" height="10.7"/>
	<rect x="-321.6" y="328.8" class="st10" width="9.8" height="10.7"/>
	<rect x="-309.4" y="328.8" class="st10" width="9.8" height="10.7"/>
	<rect x="-297.1" y="328.8" class="st10" width="9.8" height="10.7"/>
	<rect x="-284.8" y="328.8" class="st10" width="9.8" height="10.7"/>
	<rect x="-272.6" y="328.8" class="st10" width="9.8" height="10.7"/>
	<rect x="-260.3" y="328.8" class="st10" width="9.8" height="10.7"/>
	<rect x="-248.1" y="328.8" class="st10" width="9.8" height="10.7"/>
	<rect x="-235.8" y="328.8" class="st10" width="9.8" height="10.7"/>
	<rect x="-222.7" y="328.8" class="st10" width="9.8" height="10.7"/>
	<rect x="-210.5" y="328.8" class="st10" width="9.8" height="10.7"/>
	<rect x="-198.2" y="328.8" class="st10" width="9.8" height="10.7"/>
	<rect x="-186" y="328.8" class="st10" width="9.8" height="10.7"/>
	<rect x="-370.6" y="342.2" class="st10" width="9.8" height="10.7"/>
	<rect x="-358.4" y="342.2" class="st10" width="9.8" height="10.7"/>
	<rect x="-346.1" y="342.2" class="st10" width="9.8" height="10.7"/>
	<rect x="-333.9" y="342.2" class="st10" width="9.8" height="10.7"/>
	<rect x="-321.6" y="342.2" class="st10" width="9.8" height="10.7"/>
	<rect x="-309.4" y="342.2" class="st10" width="9.8" height="10.7"/>
	<rect x="-297.1" y="342.2" class="st10" width="9.8" height="10.7"/>
	<rect x="-284.8" y="342.2" class="st10" width="9.8" height="10.7"/>
	<rect x="-272.6" y="342.2" class="st10" width="9.8" height="10.7"/>
	<rect x="-260.3" y="342.2" class="st10" width="9.8" height="10.7"/>
	<rect x="-248.1" y="342.2" class="st10" width="9.8" height="10.7"/>
	<rect x="-235.8" y="342.2" class="st10" width="9.8" height="10.7"/>
	<rect x="-222.7" y="342.2" class="st10" width="9.8" height="10.7"/>
	<rect x="-210.5" y="342.2" class="st10" width="9.8" height="10.7"/>
	<rect x="-198.2" y="342.2" class="st10" width="9.8" height="10.7"/>
	<rect x="-186" y="342.2" class="st10" width="9.8" height="10.7"/>
	<rect x="-370.6" y="355.6" class="st10" width="9.8" height="10.7"/>
	<rect x="-358.4" y="355.6" class="st10" width="9.8" height="10.7"/>
	<rect x="-346.1" y="355.6" class="st10" width="9.8" height="10.7"/>
	<rect x="-333.9" y="355.6" class="st10" width="9.8" height="10.7"/>
	<rect x="-321.6" y="355.6" class="st10" width="9.8" height="10.7"/>
	<rect x="-309.4" y="355.6" class="st10" width="9.8" height="10.7"/>
	<rect x="-297.1" y="355.6" class="st10" width="9.8" height="10.7"/>
	<rect x="-284.8" y="355.6" class="st10" width="9.8" height="10.7"/>
	<rect x="-272.6" y="355.6" class="st10" width="9.8" height="10.7"/>
	<rect x="-260.3" y="355.6" class="st10" width="9.8" height="10.7"/>
	<rect x="-248.1" y="355.6" class="st10" width="9.8" height="10.7"/>
	<rect x="-235.8" y="355.6" class="st10" width="9.8" height="10.7"/>
	<rect x="-222.7" y="355.6" class="st10" width="9.8" height="10.7"/>
	<rect x="-210.5" y="355.6" class="st10" width="9.8" height="10.7"/>
	<rect x="-198.2" y="355.6" class="st10" width="9.8" height="10.7"/>
	<rect x="-186" y="355.6" class="st10" width="9.8" height="10.7"/>
	<line class="st11" x1="-270.9" y1="244" x2="-270.9" y2="310.1"/>
	<ellipse class="st12" cx="-85.4" cy="351.6" rx="11.4" ry="25.4"/>
	<g>
		<g>
			<path class="st12" d="M-270.7,247.2c9.5,12.3,23.4,18.9,38,23.1c18.5,5.4,37.8,8.5,57,9.8c19.6,1.4,40.3,0.6,58.6,8.8
				c15.5,6.9,28.1,19.9,31.3,36.9c0.2,0.9,1.6,0.5,1.4-0.4c-4.7-24.6-27.4-39-50.6-43.3c-14.7-2.7-29.7-2.5-44.6-3.7
				c-16.3-1.4-32.5-4.1-48.3-8.3c-15.7-4.1-31.3-10.4-41.5-23.6C-270,245.7-271.3,246.4-270.7,247.2L-270.7,247.2z"/>
		</g>
	</g>
</g>
<g id="Layer_3">
	<g>
		<path class="st13" d="M-545,222h-118c-6.6,0-12,5.4-12,12v107c0,6.6,5.4,12,12,12h118c6.6,0,12-5.4,12-12V234
			C-533,227.4-538.4,222-545,222z M-549,326c0,6.6-5.4,12-12,12h-83c-6.6,0-12-5.4-12-12v-76c0-6.6,5.4-12,12-12h83
			c6.6,0,12,5.4,12,12V326z"/>
		<path class="st0" d="M-561,238h-83c-6.6,0-12,5.4-12,12v76c0,6.6,5.4,12,12,12h83c6.6,0,12-5.4,12-12v-76
			C-549,243.4-554.4,238-561,238z"/>
	</g>
	<g>
		<g>
			<path d="M-609.2,317h-24.1c0-3.5,0-8.4,0-14.7s0-11.8,0-16.7c0-5.4,0-10.6,0-15.5s0-9.3,0-13.3h24.1v11.3h-8.9c0,1.8,0,4.5,0,8.2
				c0,3.7,0,6.9,0,9.5c0,2.1,0,4.9,0,8.4c0,3.6,0,7.4,0,11.7h8.9V317z"/>
			<path d="M-569.7,317h-24.1v-11.1h8.9c0-4.1,0-7.9,0-11.3s0-6.3,0-8.8c0-2.5,0-5.7,0-9.6s0-6.6,0-8.1h-8.9v-11.3h24.1
				c0,3.9,0,8.3,0,13.2s0,10.1,0,15.6c0,4.4,0,9.8,0,16.3C-569.7,308.3-569.7,313.4-569.7,317z"/>
		</g>
	</g>
</g>
<g id="Layer_4">
	<rect x="4" y="3" class="st14" width="93" height="95"/>
	<rect x="4.5" y="153.5" class="st15" width="93" height="95"/>
	<text transform="matrix(1 0 0 1 24 72)" class="st16 st17 st18">Ai</text>
	<g>
		<text transform="matrix(1 0 0 1 20 219)" class="st17 st18" style="fill:#0AC4EF;">Ps</text>
	</g>
	<rect x="4" y="310" class="st19" width="94" height="94"/>
	<rect x="10.5" y="315.5" class="st20" width="80" height="84"/>
	<text transform="matrix(1 0 0 1 20 334)" class="st0 st17" style="font-size:18px;">&gt;_</text>
	<g>
		<rect x="-424.5" y="56.5" class="st21" width="151" height="126"/>
		<path d="M-274,57v125h-150V57H-274 M-273,56h-152v127h152V56L-273,56z"/>
	</g>
	<g>
		<rect x="-267.5" y="56.5" class="st0" width="151" height="126"/>
		<path d="M-117,57v125h-150V57H-117 M-116,56h-152v127h152V56L-116,56z"/>
	</g>
	<line class="st22" x1="-412" y1="72" x2="-358" y2="72"/>
	<line class="st22" x1="-412" y1="94" x2="-341" y2="93"/>
	<line class="st23" x1="-412" y1="72" x2="-358" y2="72"/>
	<line class="st23" x1="-398" y1="83" x2="-344" y2="83"/>
	<line class="st23" x1="-385" y1="93" x2="-331" y2="93"/>
	<line class="st23" x1="-412" y1="159" x2="-292" y2="159"/>
	<line class="st23" x1="-412" y1="127" x2="-358" y2="127"/>
	<line class="st23" x1="-412" y1="115" x2="-358" y2="115"/>
	<g>
		<rect x="-256" y="69" class="st24" width="129" height="29"/>
	</g>
	<g>
		<rect x="-256" y="106" class="st24" width="29" height="29"/>
	</g>
	<g>
		<rect x="-256" y="144" class="st25" width="129" height="31"/>
	</g>
	<rect x="-218" y="106" class="st24" width="91" height="29"/>
</g>
</svg>
