<?xml version="1.0" encoding="utf-8"?>
<!-- Generator: Adobe Illustrator 22.1.0, SVG Export Plug-In . SVG Version: 6.00 Build 0)  -->
<svg version="1.1" id="Layer_1" xmlns="http://www.w3.org/2000/svg" xmlns:xlink="http://www.w3.org/1999/xlink" x="0px" y="0px"
	 viewBox="0 0 677 328" style="enable-background:new 0 0 677 328;" xml:space="preserve">
<style type="text/css">
	.st0{fill:#00BF9C;}
	.st1{fill:#2B485A;}
	.st2{fill:#FFFFFF;}
	.st3{fill:#11EDC2;}
	.st4{fill:#EDF2F1;}
	.st5{fill:none;stroke:#FFFFFF;stroke-miterlimit:10;}
	.st6{fill:#F5F7F7;}
	.st7{fill:#9A9B9B;}
	.st8{fill:#898785;}
	.st9{fill:#B2B1B1;}
	.st10{fill:#97A09E;}
	.st11{fill:none;stroke:#FFFFFF;stroke-width:0.5;stroke-miterlimit:10;}
	.st12{fill:#D1CFCD;}
	.st13{font-family:'Impact';}
	.st14{font-size:22px;}
</style>
<g id="Background">
	<g>
		<rect x="776.1" y="-25.5" class="st0" width="960" height="600"/>
	</g>
	<rect x="230.1" y="38.5" class="st0" width="214" height="18"/>
	<rect x="230.1" y="38.5" class="st1" width="213" height="18"/>
	<rect x="237.1" y="42.5" class="st2" width="172" height="9"/>
	<rect x="205.1" y="253.5" class="st3" width="256" height="69"/>
	<rect x="214.1" y="259.5" class="st4" width="12" height="12"/>
	<rect x="229.1" y="259.5" class="st4" width="12" height="12"/>
	<rect x="244.1" y="259.5" class="st4" width="12" height="12"/>
	<rect x="259.1" y="259.5" class="st4" width="12" height="12"/>
	<rect x="274.1" y="259.5" class="st4" width="12" height="12"/>
	<rect x="289.1" y="259.5" class="st4" width="12" height="12"/>
	<rect x="304.1" y="259.5" class="st4" width="12" height="12"/>
	<rect x="319.1" y="259.5" class="st4" width="12" height="12"/>
	<rect x="334.1" y="259.5" class="st4" width="12" height="12"/>
	<rect x="349.1" y="259.5" class="st4" width="12" height="12"/>
	<rect x="364.1" y="259.5" class="st4" width="12" height="12"/>
	<rect x="379.1" y="259.5" class="st4" width="12" height="12"/>
	<rect x="395.1" y="259.5" class="st4" width="12" height="12"/>
	<rect x="410.1" y="259.5" class="st4" width="12" height="12"/>
	<rect x="425.1" y="259.5" class="st4" width="12" height="12"/>
	<rect x="440.1" y="259.5" class="st4" width="12" height="12"/>
	<rect x="214.1" y="274.5" class="st4" width="12" height="12"/>
	<rect x="229.1" y="274.5" class="st4" width="12" height="12"/>
	<rect x="244.1" y="274.5" class="st4" width="12" height="12"/>
	<rect x="259.1" y="274.5" class="st4" width="12" height="12"/>
	<rect x="274.1" y="274.5" class="st4" width="12" height="12"/>
	<rect x="289.1" y="274.5" class="st4" width="12" height="12"/>
	<rect x="304.1" y="274.5" class="st4" width="12" height="12"/>
	<rect x="319.1" y="274.5" class="st4" width="12" height="12"/>
	<rect x="334.1" y="274.5" class="st4" width="12" height="12"/>
	<rect x="349.1" y="274.5" class="st4" width="12" height="12"/>
	<rect x="364.1" y="274.5" class="st4" width="12" height="12"/>
	<rect x="379.1" y="274.5" class="st4" width="12" height="12"/>
	<rect x="395.1" y="274.5" class="st4" width="12" height="12"/>
	<rect x="410.1" y="274.5" class="st4" width="12" height="12"/>
	<rect x="425.1" y="274.5" class="st4" width="12" height="12"/>
	<rect x="440.1" y="274.5" class="st4" width="12" height="12"/>
	<rect x="214.1" y="289.5" class="st4" width="12" height="12"/>
	<rect x="229.1" y="289.5" class="st4" width="12" height="12"/>
	<rect x="244.1" y="289.5" class="st4" width="12" height="12"/>
	<rect x="259.1" y="289.5" class="st4" width="12" height="12"/>
	<rect x="274.1" y="289.5" class="st4" width="12" height="12"/>
	<rect x="289.1" y="289.5" class="st4" width="12" height="12"/>
	<rect x="304.1" y="289.5" class="st4" width="12" height="12"/>
	<rect x="319.1" y="289.5" class="st4" width="12" height="12"/>
	<rect x="334.1" y="289.5" class="st4" width="12" height="12"/>
	<rect x="349.1" y="289.5" class="st4" width="12" height="12"/>
	<rect x="364.1" y="289.5" class="st4" width="12" height="12"/>
	<rect x="379.1" y="289.5" class="st4" width="12" height="12"/>
	<rect x="395.1" y="289.5" class="st4" width="12" height="12"/>
	<rect x="410.1" y="289.5" class="st4" width="12" height="12"/>
	<rect x="425.1" y="289.5" class="st4" width="12" height="12"/>
	<rect x="440.1" y="289.5" class="st4" width="12" height="12"/>
	<rect x="214.1" y="304.5" class="st4" width="12" height="12"/>
	<rect x="229.1" y="304.5" class="st4" width="12" height="12"/>
	<rect x="244.1" y="304.5" class="st4" width="12" height="12"/>
	<rect x="259.1" y="304.5" class="st4" width="12" height="12"/>
	<rect x="274.1" y="304.5" class="st4" width="12" height="12"/>
	<rect x="289.1" y="304.5" class="st4" width="12" height="12"/>
	<rect x="304.1" y="304.5" class="st4" width="12" height="12"/>
	<rect x="319.1" y="304.5" class="st4" width="12" height="12"/>
	<rect x="334.1" y="304.5" class="st4" width="12" height="12"/>
	<rect x="349.1" y="304.5" class="st4" width="12" height="12"/>
	<rect x="364.1" y="304.5" class="st4" width="12" height="12"/>
	<rect x="379.1" y="304.5" class="st4" width="12" height="12"/>
	<rect x="395.1" y="304.5" class="st4" width="12" height="12"/>
	<rect x="410.1" y="304.5" class="st4" width="12" height="12"/>
	<rect x="425.1" y="304.5" class="st4" width="12" height="12"/>
	<rect x="440.1" y="304.5" class="st4" width="12" height="12"/>
	<line class="st5" x1="336.1" y1="179.5" x2="336.1" y2="253.5"/>
	<ellipse class="st6" cx="563.1" cy="300" rx="14" ry="28.5"/>
	<g>
		<g>
			<path class="st6" d="M336.6,183.2c9.4,11.2,22.3,18,36,22.6c16.5,5.6,34,8.7,51.2,11.1c18.1,2.5,36.3,3.2,54.6,4.3
				c17.8,1.1,36.2,3.2,52.3,11.5c15.4,7.9,28.5,21,32.1,38.4c0.2,0.9,1.6,0.5,1.4-0.4c-6.3-30.4-37.5-45-65.4-49.1
				c-17.8-2.6-35.9-2.3-53.9-3.8c-19.6-1.6-39.2-4.8-58.3-9.5c-18.2-4.5-36.6-11.4-49-26.2C337.1,181.4,336,182.4,336.6,183.2
				L336.6,183.2z"/>
		</g>
	</g>
	<g>
		<g>
			<path class="st6" d="M-265.8-287.6c1,0,1-1.5,0-1.5C-266.7-289.1-266.7-287.6-265.8-287.6L-265.8-287.6z"/>
		</g>
	</g>
	<rect x="194.1" y="160.5" class="st7" width="281" height="15"/>
</g>
<g id="Title">
</g>
<g id="Layer_5">
	<rect x="187.1" y="0.5" class="st2" width="298" height="179"/>
	<rect x="310.1" y="138.5" class="st8" width="85" height="15"/>
	<rect x="401.1" y="138.5" class="st9" width="74" height="15"/>
	<rect x="194.1" y="160.5" class="st10" width="281" height="15"/>
</g>
<g id="Layer_6">
	<rect x="187.1" y="0.5" class="st1" width="298" height="29.4"/>
</g>
<g id="Layer_7">
	<rect x="194.1" y="8.9" class="st2" width="242.3" height="12.6"/>
	<g>
		<ellipse class="st2" cx="447.5" cy="14.5" rx="5.6" ry="5.6"/>
		<ellipse class="st2" cx="461.4" cy="14.5" rx="5.6" ry="5.6"/>
		<ellipse class="st2" cx="475.4" cy="14.5" rx="5.6" ry="5.6"/>
	</g>
</g>
<g id="Layer_8">
	<line class="st11" x1="503.6" y1="67.5" x2="539.6" y2="20.5"/>
	<line class="st11" x1="539.6" y1="20.5" x2="674.6" y2="20.5"/>
	<line class="st11" x1="167.1" y1="68" x2="131.1" y2="21"/>
	<line class="st11" x1="131.1" y1="21" x2="-3.9" y2="21"/>
	<line class="st11" x1="169.1" y1="158" x2="133.1" y2="111"/>
	<line class="st11" x1="133.1" y1="111" x2="-1.9" y2="111"/>
	<line class="st11" x1="168.1" y1="180" x2="132.1" y2="227"/>
	<line class="st11" x1="132.1" y1="227" x2="-2.9" y2="227"/>
	<line class="st11" x1="504.1" y1="155" x2="540.1" y2="113"/>
	<line class="st11" x1="540.1" y1="113" x2="675.1" y2="113"/>
</g>
<g id="Layer_9">
	<g>
		<rect x="194.1" y="42.5" class="st12" width="281" height="9"/>
	</g>
	<rect x="194.1" y="63.5" class="st12" width="101" height="90"/>
	<rect x="310.1" y="63.5" class="st12" width="165" height="19"/>
	<rect x="310.1" y="86.5" class="st12" width="165" height="17"/>
	<rect x="310.1" y="107.5" class="st12" width="165" height="25"/>
</g>
<rect x="194.1" y="38.5" class="st2" width="281" height="141"/>
<text transform="matrix(1 0 0 1 250.0748 91.5)"><tspan x="0" y="0" class="st13 st14">Managing pfojects</tspan><tspan x="0" y="26.4" class="st13 st14">easily!</tspan></text>
<rect x="467" y="42.5" class="st2" width="14" height="133"/>
</svg>
