<?xml version="1.0" encoding="utf-8"?>
<!-- Generator: Adobe Illustrator 22.1.0, SVG Export Plug-In . SVG Version: 6.00 Build 0)  -->
<svg version="1.1" xmlns="http://www.w3.org/2000/svg" xmlns:xlink="http://www.w3.org/1999/xlink" x="0px" y="0px"
	 viewBox="0 0 95 94" style="enable-background:new 0 0 95 94;" xml:space="preserve">
<style type="text/css">
	.st0{fill:#FFFFFF;}
	.st1{fill:#F2F2F2;}
	.st2{fill:#2B485A;}
	.st3{fill:#F4F4F4;}
	.st4{fill:#0C0C0C;}
	.st5{fill:#D6D8D8;}
	.st6{fill:#111111;}
	.st7{fill:#F2F4F4;}
	.st8{fill:#F9F9F9;}
	.st9{fill:#11EDC2;}
	.st10{fill:#EDF2F1;}
	.st11{fill:#2B2B2B;stroke:#FFFFFF;stroke-miterlimit:10;}
	.st12{fill:#F5F7F7;}
	.st13{fill:#00ABE7;}
	.st14{fill:#291200;stroke:#FF7300;stroke-width:7;stroke-miterlimit:10;}
	.st15{fill:#1F1C38;stroke:#0AC4EF;stroke-width:8;stroke-miterlimit:10;}
	.st16{fill:#FF7300;}
	.st17{stroke:#FFFFFF;stroke-miterlimit:10;}
	.st18{fill:#011D21;stroke:#FFFFFF;stroke-miterlimit:10;}
	.st19{font-family:'SourceSansPro-Black';}
	.st20{font-size:18px;}
	.st21{fill:#222323;}
	.st22{fill:none;}
	.st23{fill:#FFFFFF;stroke:#FFFFFF;stroke-width:2;stroke-miterlimit:10;}
	.st24{fill:#CCCECE;}
	.st25{fill:#B8C9C8;}
</style>
<g id="Layer_1">
	<text transform="matrix(1 0 0 1 -338 -357)" class="st0 st19" style="font-size:48px;">Tools</text>
	<rect x="-401" y="-212" class="st0" width="230" height="110"/>
	<rect x="-688" y="-259" class="st1" width="158" height="108"/>
	<rect x="-688" y="-259" class="st2" width="158" height="17.7"/>
	<rect x="-684.3" y="-253.9" class="st0" width="128.5" height="7.6"/>
	<ellipse class="st0" cx="-549.9" cy="-250.6" rx="3" ry="3.4"/>
	<ellipse class="st0" cx="-542.6" cy="-250.6" rx="3" ry="3.4"/>
	<ellipse class="st0" cx="-535.2" cy="-250.6" rx="3" ry="3.4"/>
	<g>
		<rect x="-271.5" y="-165.5" class="st0" width="151" height="38"/>
		<path d="M-121-165v37h-150v-37H-121 M-120-166h-152v39h152V-166L-120-166z"/>
	</g>
	<g>
		<path class="st3" d="M-202-168.5c-5.2,0-9.5-4.3-9.5-9.5v-37c0-5.2,4.3-9.5,9.5-9.5h10c5.2,0,9.5,4.3,9.5,9.5v37
			c0,5.2-4.3,9.5-9.5,9.5H-202z"/>
		<path class="st4" d="M-192-222c3.9,0,7,3.1,7,7v37c0,3.9-3.1,7-7,7h-10c-3.9,0-7-3.1-7-7v-37c0-3.9,3.1-7,7-7H-192 M-192-227h-10
			c-6.6,0-12,5.4-12,12v37c0,6.6,5.4,12,12,12h10c6.6,0,12-5.4,12-12v-37C-180-221.6-185.4-227-192-227L-192-227z"/>
	</g>
</g>
<g id="Layer_2">
	<g>
		<polygon class="st5" points="-310.6,-32.9 -320.1,-32.9 -320.1,-29 -229.2,-29 -229.2,-32.9 -237.4,-32.9 -237.4,-72.3 
			-310.6,-72.3 		"/>
		<path class="st6" d="M-453-285v179.9h358V-285H-453z M-109.9-119.6h-326.8V-264h326.8V-119.6z"/>
		<polygon class="st7" points="-453,-72.3 -310.6,-72.3 -237.4,-72.3 -95,-72.3 -95,-105.1 -453,-105.1 		"/>
		<rect x="-436.7" y="-264" class="st8" width="326.8" height="144.4"/>
	</g>
	<rect x="-382" y="0.1" class="st9" width="209.2" height="61.6"/>
	<rect x="-374.6" y="5.4" class="st10" width="9.8" height="10.7"/>
	<rect x="-362.4" y="5.4" class="st10" width="9.8" height="10.7"/>
	<rect x="-350.1" y="5.4" class="st10" width="9.8" height="10.7"/>
	<rect x="-337.9" y="5.4" class="st10" width="9.8" height="10.7"/>
	<rect x="-325.6" y="5.4" class="st10" width="9.8" height="10.7"/>
	<rect x="-313.4" y="5.4" class="st10" width="9.8" height="10.7"/>
	<rect x="-301.1" y="5.4" class="st10" width="9.8" height="10.7"/>
	<rect x="-288.8" y="5.4" class="st10" width="9.8" height="10.7"/>
	<rect x="-276.6" y="5.4" class="st10" width="9.8" height="10.7"/>
	<rect x="-264.3" y="5.4" class="st10" width="9.8" height="10.7"/>
	<rect x="-252.1" y="5.4" class="st10" width="9.8" height="10.7"/>
	<rect x="-239.8" y="5.4" class="st10" width="9.8" height="10.7"/>
	<rect x="-226.7" y="5.4" class="st10" width="9.8" height="10.7"/>
	<rect x="-214.5" y="5.4" class="st10" width="9.8" height="10.7"/>
	<rect x="-202.2" y="5.4" class="st10" width="9.8" height="10.7"/>
	<rect x="-190" y="5.4" class="st10" width="9.8" height="10.7"/>
	<rect x="-374.6" y="18.8" class="st10" width="9.8" height="10.7"/>
	<rect x="-362.4" y="18.8" class="st10" width="9.8" height="10.7"/>
	<rect x="-350.1" y="18.8" class="st10" width="9.8" height="10.7"/>
	<rect x="-337.9" y="18.8" class="st10" width="9.8" height="10.7"/>
	<rect x="-325.6" y="18.8" class="st10" width="9.8" height="10.7"/>
	<rect x="-313.4" y="18.8" class="st10" width="9.8" height="10.7"/>
	<rect x="-301.1" y="18.8" class="st10" width="9.8" height="10.7"/>
	<rect x="-288.8" y="18.8" class="st10" width="9.8" height="10.7"/>
	<rect x="-276.6" y="18.8" class="st10" width="9.8" height="10.7"/>
	<rect x="-264.3" y="18.8" class="st10" width="9.8" height="10.7"/>
	<rect x="-252.1" y="18.8" class="st10" width="9.8" height="10.7"/>
	<rect x="-239.8" y="18.8" class="st10" width="9.8" height="10.7"/>
	<rect x="-226.7" y="18.8" class="st10" width="9.8" height="10.7"/>
	<rect x="-214.5" y="18.8" class="st10" width="9.8" height="10.7"/>
	<rect x="-202.2" y="18.8" class="st10" width="9.8" height="10.7"/>
	<rect x="-190" y="18.8" class="st10" width="9.8" height="10.7"/>
	<rect x="-374.6" y="32.2" class="st10" width="9.8" height="10.7"/>
	<rect x="-362.4" y="32.2" class="st10" width="9.8" height="10.7"/>
	<rect x="-350.1" y="32.2" class="st10" width="9.8" height="10.7"/>
	<rect x="-337.9" y="32.2" class="st10" width="9.8" height="10.7"/>
	<rect x="-325.6" y="32.2" class="st10" width="9.8" height="10.7"/>
	<rect x="-313.4" y="32.2" class="st10" width="9.8" height="10.7"/>
	<rect x="-301.1" y="32.2" class="st10" width="9.8" height="10.7"/>
	<rect x="-288.8" y="32.2" class="st10" width="9.8" height="10.7"/>
	<rect x="-276.6" y="32.2" class="st10" width="9.8" height="10.7"/>
	<rect x="-264.3" y="32.2" class="st10" width="9.8" height="10.7"/>
	<rect x="-252.1" y="32.2" class="st10" width="9.8" height="10.7"/>
	<rect x="-239.8" y="32.2" class="st10" width="9.8" height="10.7"/>
	<rect x="-226.7" y="32.2" class="st10" width="9.8" height="10.7"/>
	<rect x="-214.5" y="32.2" class="st10" width="9.8" height="10.7"/>
	<rect x="-202.2" y="32.2" class="st10" width="9.8" height="10.7"/>
	<rect x="-190" y="32.2" class="st10" width="9.8" height="10.7"/>
	<rect x="-374.6" y="45.6" class="st10" width="9.8" height="10.7"/>
	<rect x="-362.4" y="45.6" class="st10" width="9.8" height="10.7"/>
	<rect x="-350.1" y="45.6" class="st10" width="9.8" height="10.7"/>
	<rect x="-337.9" y="45.6" class="st10" width="9.8" height="10.7"/>
	<rect x="-325.6" y="45.6" class="st10" width="9.8" height="10.7"/>
	<rect x="-313.4" y="45.6" class="st10" width="9.8" height="10.7"/>
	<rect x="-301.1" y="45.6" class="st10" width="9.8" height="10.7"/>
	<rect x="-288.8" y="45.6" class="st10" width="9.8" height="10.7"/>
	<rect x="-276.6" y="45.6" class="st10" width="9.8" height="10.7"/>
	<rect x="-264.3" y="45.6" class="st10" width="9.8" height="10.7"/>
	<rect x="-252.1" y="45.6" class="st10" width="9.8" height="10.7"/>
	<rect x="-239.8" y="45.6" class="st10" width="9.8" height="10.7"/>
	<rect x="-226.7" y="45.6" class="st10" width="9.8" height="10.7"/>
	<rect x="-214.5" y="45.6" class="st10" width="9.8" height="10.7"/>
	<rect x="-202.2" y="45.6" class="st10" width="9.8" height="10.7"/>
	<rect x="-190" y="45.6" class="st10" width="9.8" height="10.7"/>
	<line class="st11" x1="-274.9" y1="-66" x2="-274.9" y2="0.1"/>
	<ellipse class="st12" cx="-89.4" cy="41.6" rx="11.4" ry="25.4"/>
	<g>
		<g>
			<path class="st12" d="M-274.7-62.8c9.5,12.3,23.4,18.9,38,23.1c18.5,5.4,37.8,8.5,57,9.8c19.6,1.4,40.3,0.6,58.6,8.8
				c15.5,6.9,28.1,19.9,31.3,36.9c0.2,0.9,1.6,0.5,1.4-0.4c-4.7-24.6-27.4-39-50.6-43.3c-14.7-2.7-29.7-2.5-44.6-3.7
				c-16.3-1.4-32.5-4.1-48.3-8.3c-15.7-4.1-31.3-10.4-41.5-23.6C-274-64.3-275.3-63.6-274.7-62.8L-274.7-62.8z"/>
		</g>
	</g>
</g>
<g id="Layer_3">
	<g>
		<path class="st13" d="M-549-88h-118c-6.6,0-12,5.4-12,12V31c0,6.6,5.4,12,12,12h118c6.6,0,12-5.4,12-12V-76
			C-537-82.6-542.4-88-549-88z M-553,16c0,6.6-5.4,12-12,12h-83c-6.6,0-12-5.4-12-12v-76c0-6.6,5.4-12,12-12h83c6.6,0,12,5.4,12,12
			V16z"/>
		<path class="st0" d="M-565-72h-83c-6.6,0-12,5.4-12,12v76c0,6.6,5.4,12,12,12h83c6.6,0,12-5.4,12-12v-76
			C-553-66.6-558.4-72-565-72z"/>
	</g>
	<g>
		<g>
			<path d="M-613.2,7h-24.1c0-3.5,0-8.4,0-14.7s0-11.8,0-16.7c0-5.4,0-10.6,0-15.5s0-9.3,0-13.3h24.1v11.3h-8.9c0,1.8,0,4.5,0,8.2
				c0,3.7,0,6.9,0,9.5c0,2.1,0,4.9,0,8.4c0,3.6,0,7.4,0,11.7h8.9V7z"/>
			<path d="M-573.7,7h-24.1V-4.1h8.9c0-4.1,0-7.9,0-11.3s0-6.3,0-8.8c0-2.5,0-5.7,0-9.6s0-6.6,0-8.1h-8.9v-11.3h24.1
				c0,3.9,0,8.3,0,13.2s0,10.1,0,15.6c0,4.4,0,9.8,0,16.3C-573.7-1.7-573.7,3.4-573.7,7z"/>
		</g>
	</g>
</g>
<g id="Layer_4">
	<rect y="-307" class="st14" width="93" height="95"/>
	<rect x="0.5" y="-156.5" class="st15" width="93" height="95"/>
	<text transform="matrix(1 0 0 1 20 -238)" class="st16 st19" style="font-size:60px;">Ai</text>
	<g>
		<text transform="matrix(1 0 0 1 16 -91)" class="st19" style="fill:#0AC4EF; font-size:60px;">Ps</text>
	</g>
	<rect class="st17" width="94" height="94"/>
	<rect x="6.5" y="5.5" class="st18" width="80" height="84"/>
	<text transform="matrix(1 0 0 1 16 24)" class="st0 st19 st20">&gt;_</text>
	<g>
		<rect x="-428.5" y="-253.5" class="st21" width="151" height="126"/>
		<path d="M-278-253v125h-150v-125H-278 M-277-254h-152v127h152V-254L-277-254z"/>
	</g>
	<g>
		<rect x="-271.5" y="-253.5" class="st0" width="151" height="126"/>
		<path d="M-121-253v125h-150v-125H-121 M-120-254h-152v127h152V-254L-120-254z"/>
	</g>
	<line class="st22" x1="-416" y1="-238" x2="-362" y2="-238"/>
	<line class="st22" x1="-416" y1="-216" x2="-345" y2="-217"/>
	<line class="st23" x1="-416" y1="-238" x2="-362" y2="-238"/>
	<line class="st23" x1="-402" y1="-227" x2="-348" y2="-227"/>
	<line class="st23" x1="-389" y1="-217" x2="-335" y2="-217"/>
	<line class="st23" x1="-416" y1="-151" x2="-296" y2="-151"/>
	<line class="st23" x1="-416" y1="-183" x2="-362" y2="-183"/>
	<line class="st23" x1="-416" y1="-195" x2="-362" y2="-195"/>
	<g>
		<rect x="-260" y="-241" class="st24" width="129" height="29"/>
	</g>
	<g>
		<rect x="-260" y="-204" class="st24" width="29" height="29"/>
	</g>
	<g>
		<rect x="-260" y="-166" class="st25" width="129" height="31"/>
	</g>
	<rect x="-222" y="-204" class="st24" width="91" height="29"/>
</g>
</svg>
